<?xml version="1.0" encoding="UTF-8" standalone="no"?>
<!DOCTYPE svg PUBLIC "-//W3C//DTD SVG 1.1//EN" "http://www.w3.org/Graphics/SVG/1.1/DTD/svg11.dtd">
<svg width="100%" height="100%" viewBox="0 0 500 150" version="1.1" xmlns="http://www.w3.org/2000/svg" xmlns:xlink="http://www.w3.org/1999/xlink" xml:space="preserve" xmlns:serif="http://www.serif.com/" style="fill-rule:evenodd;clip-rule:evenodd;stroke-linejoin:round;stroke-miterlimit:2;">
    <g transform="matrix(1,0,0,1,-50,-300)">
        <g id="itch" transform="matrix(0.645344,0,0,0.645344,50,310.807)">
            <g transform="matrix(1,0,0,1,-253.321,0)">
                <path d="M253.951,174.122L253.951,70.952L288.761,70.952L288.761,174.122L253.951,174.122ZM271.565,62.562C265.693,62.562 261.149,61.094 257.935,58.158C254.859,55.222 253.321,51.308 253.321,46.415C253.321,41.801 254.858,37.887 257.934,34.672C261.149,31.456 265.692,29.849 271.564,29.849C277.436,29.849 281.91,31.456 284.986,34.672C288.201,37.887 289.809,41.801 289.809,46.415C289.809,51.308 288.201,55.222 284.986,58.158C281.911,61.094 277.437,62.562 271.566,62.562L271.565,62.562ZM340.701,176.222C330.634,176.222 323.014,173.565 317.841,168.252C312.809,162.801 310.293,155.252 310.293,145.605L310.293,96.745L296.453,96.745L296.453,70.95L310.293,70.95L310.293,45.786L345.103,45.786L345.103,70.952L367.753,70.952L367.753,96.742L345.101,96.742L345.101,140.57C345.101,143.786 345.73,146.093 346.989,147.49C348.387,148.749 350.484,149.378 353.279,149.378C357.054,149.378 361.179,147.7 365.652,144.345L373.622,167.203C369.569,170.003 364.955,172.24 359.782,173.913C354.609,175.453 348.249,176.223 340.702,176.223L340.701,176.222ZM426.321,176.222C410.383,176.222 397.801,171.679 388.574,162.592C379.488,153.504 374.944,140.292 374.944,122.957C374.944,110.375 377.53,99.82 382.702,91.292C388.016,82.485 394.659,76.543 402.632,73.467C411.019,70.251 418.779,68.644 425.912,68.644C434.859,68.644 442.339,70.461 448.352,74.096C454.366,77.591 458.769,81.436 461.562,85.63C464.502,89.823 466.599,93.108 467.852,95.486L443.742,111.004C441.509,106.39 439.062,102.755 436.402,100.099C433.749,97.443 430.536,96.115 426.762,96.115C421.449,96.115 417.256,98.211 414.182,102.405C411.109,106.599 409.572,112.961 409.572,121.489C409.572,130.716 411.389,137.496 415.022,141.829C418.656,146.164 423.829,148.331 430.542,148.331C435.856,148.331 440.259,147.351 443.752,145.391C447.386,143.431 450.811,140.914 454.029,137.841L465.144,163.841C461.788,166.634 456.825,169.431 450.254,172.231C443.684,174.884 435.715,176.211 426.348,176.211L426.321,176.222ZM476.971,174.122L476.971,34.042L511.992,34.042L511.992,76.612C514.927,74.514 518.492,72.697 522.686,71.16C526.879,69.482 531.912,68.643 537.786,68.643C550.088,68.643 559.244,72.139 565.256,79.133C571.407,86.126 574.483,95.983 574.483,108.703L574.483,174.133L539.463,174.133L539.463,112.893C539.463,107.026 538.346,102.763 536.113,100.103C533.879,97.309 530.943,95.913 527.303,95.913C524.229,95.913 521.363,96.613 518.703,98.013C516.049,99.413 513.813,100.883 511.993,102.423L511.993,174.143L476.972,174.143L476.971,174.122ZM601.372,176.222C595.779,176.222 591.374,174.614 588.16,171.399C584.944,168.184 583.337,164.06 583.337,159.027C583.337,153.994 584.944,149.8 588.16,146.445C591.375,143.09 595.779,141.412 601.37,141.412C606.683,141.412 610.948,143.09 614.163,146.445C617.383,149.8 618.993,153.994 618.993,159.027C618.993,164.06 617.386,168.184 614.173,171.399C611.1,174.614 606.836,176.222 601.383,176.222L601.372,176.222ZM627.122,174.122L627.122,70.952L661.932,70.952L661.932,174.122L627.122,174.122ZM644.732,62.582C638.859,62.582 634.315,61.114 631.1,58.178C628.025,55.242 626.487,51.327 626.487,46.435C626.487,41.821 628.025,37.907 631.1,34.692C634.315,31.476 638.859,29.869 644.73,29.869C650.602,29.869 655.076,31.476 658.152,34.692C661.367,37.907 662.975,41.821 662.975,46.435C662.975,51.328 661.367,55.242 658.152,58.178C655.077,61.114 650.603,62.582 644.732,62.582ZM723.402,176.222C715.293,176.222 708.093,174.894 701.802,172.238C695.511,169.442 690.128,165.667 685.655,160.914C681.322,156.021 677.966,150.289 675.589,143.718C673.352,137.007 672.234,129.737 672.234,121.908C672.234,110.305 674.751,100.17 679.784,91.502C684.956,82.974 691.387,77.032 699.076,73.677C706.905,70.321 715.013,68.644 723.401,68.644C735.421,68.644 745.345,71.44 753.171,77.032C761.138,82.624 766.731,89.614 769.951,98.002C773.165,106.39 774.771,114.358 774.771,121.908C774.771,129.737 773.581,137.007 771.201,143.718C768.968,150.288 765.611,156.02 761.131,160.913C756.798,165.666 751.415,169.443 744.981,172.243C738.691,174.903 731.491,176.233 723.381,176.233L723.402,176.222ZM723.402,149.38C729.274,149.38 733.537,146.933 736.192,142.04C738.849,137.007 740.177,130.297 740.177,121.91C740.177,113.94 738.779,107.579 735.983,102.826C733.19,98.072 728.997,95.696 723.403,95.696C717.95,95.696 713.827,98.072 711.033,102.826C708.24,107.579 706.843,113.94 706.843,121.909C706.843,130.297 708.173,137.007 710.833,142.039C713.633,146.932 717.827,149.379 723.413,149.379L723.402,149.38Z" style="fill:white;fill-rule:nonzero;"/>
            </g>
            <g transform="matrix(1,0,0,1,553.67,0)">
                <path d="M28.832,1.229C19.188,6.955 0.186,28.787 0.004,34.512L0.004,43.99C0.004,56.004 11.234,66.562 21.428,66.562C33.668,66.562 43.868,56.416 43.87,44.375C43.87,56.415 53.72,66.562 65.963,66.562C78.205,66.562 87.739,56.416 87.739,44.375C87.739,56.415 98.209,66.562 110.449,66.562L110.669,66.562C122.909,66.562 133.389,56.416 133.389,44.375C133.389,56.415 142.919,66.562 155.159,66.562C167.4,66.562 177.25,56.416 177.25,44.375C177.25,56.415 187.45,66.562 199.69,66.562C209.88,66.562 221.11,56.005 221.11,43.99L221.11,34.512C220.92,28.787 201.92,6.955 192.28,1.229C162.31,0.176 141.519,-0.005 110.549,-0.001C79.59,0.001 37.36,0.484 28.83,1.229L28.832,1.229ZM87.585,60.904C86.419,62.95 84.958,64.807 83.277,66.45C78.657,70.97 72.321,73.77 65.337,73.77C58.352,73.77 51.981,70.97 47.361,66.448C45.691,64.808 44.421,63.054 43.251,61.012L43.251,61.016C42.091,63.062 40.461,64.814 38.791,66.456C34.171,70.976 27.801,73.773 20.821,73.773C19.981,73.773 19.111,73.543 18.401,73.303C17.419,83.553 17.001,93.343 16.856,100.493L16.856,100.533C16.836,104.163 16.821,107.143 16.802,111.283C16.992,132.793 14.672,180.983 26.282,192.823C44.272,197.023 77.376,198.933 110.592,198.943L110.595,198.943C143.809,198.933 176.916,197.023 194.906,192.833C206.516,180.99 204.196,132.8 204.386,111.297C204.369,107.157 204.352,104.175 204.333,100.547L204.333,100.507C204.183,93.365 203.768,83.572 202.783,73.324C202.073,73.564 201.196,73.797 200.353,73.797C193.373,73.797 186.999,71 182.378,66.481C180.703,64.837 179.078,63.085 177.915,61.041L177.91,61.035C176.744,63.075 175.473,64.832 173.798,66.471C169.178,70.993 162.808,73.793 155.824,73.793C148.841,73.793 142.504,70.993 137.884,66.473C136.204,64.829 134.744,62.973 133.574,60.926C132.411,62.966 130.984,64.833 129.308,66.472C124.688,70.992 118.318,73.792 111.328,73.792C111.084,73.792 110.838,73.782 110.598,73.772L110.59,73.772C110.347,73.782 110.104,73.792 109.86,73.792C102.874,73.792 96.503,70.992 91.882,66.472C90.204,64.832 88.776,62.969 87.612,60.928L87.585,60.904ZM69.123,84.777L69.121,84.785L69.141,84.785C76.451,84.801 82.951,84.785 90.991,93.568C97.331,92.905 103.941,92.572 110.571,92.583L110.581,92.583C117.211,92.573 123.821,92.913 130.161,93.573C138.211,84.793 144.701,84.813 152.011,84.793L152.031,84.793L152.031,84.783C155.489,84.783 169.302,84.783 178.932,111.823L189.279,148.923C196.944,176.523 186.826,177.203 174.206,177.223C155.485,176.533 145.125,162.933 145.125,149.343C134.765,151.043 122.675,151.893 110.59,151.893L110.585,151.893C98.499,151.893 86.413,151.043 76.055,149.343C76.055,162.933 65.695,176.523 46.977,177.223C34.357,177.203 24.237,176.523 31.904,148.933L42.244,111.833C51.874,84.793 65.694,84.793 69.144,84.793L69.123,84.777ZM110.563,106.027L110.563,106.034C110.546,106.051 90.861,124.13 87.323,130.56L100.213,130.044L100.213,141.284C100.213,141.811 105.387,141.597 110.563,141.358L110.57,141.358C115.747,141.598 120.92,141.811 120.92,141.285L120.92,130.045L133.81,130.559C130.272,124.129 110.57,106.034 110.57,106.034L110.57,106.028L110.568,106.03L110.563,106.027Z" style="fill:white;fill-rule:nonzero;"/>
            </g>
        </g>
        <g id="steam">
        </g>
    </g>
</svg>
