<?xml version="1.0" encoding="UTF-8" standalone="no"?>
<!DOCTYPE svg PUBLIC "-//W3C//DTD SVG 1.1//EN" "http://www.w3.org/Graphics/SVG/1.1/DTD/svg11.dtd">
<svg width="100%" height="100%" viewBox="0 0 500 150" version="1.1" xmlns="http://www.w3.org/2000/svg" xmlns:xlink="http://www.w3.org/1999/xlink" xml:space="preserve" xmlns:serif="http://www.serif.com/" style="fill-rule:evenodd;clip-rule:evenodd;stroke-linejoin:round;stroke-miterlimit:2;">
    <g transform="matrix(1,0,0,1,-50,-50)">
        <g id="itch">
        </g>
        <g id="steam" transform="matrix(1.70382,0,0,1.70382,-8.25488,-21.4832)">
            <g transform="matrix(1,0,0,1,78.2747,130.21)">
                <path d="M0,-88.474C-23.237,-88.474 -42.274,-70.557 -44.084,-47.786L-20.375,-37.983C-18.366,-39.356 -15.938,-40.16 -13.327,-40.16C-13.093,-40.16 -12.86,-40.154 -12.629,-40.141L-2.085,-55.423C-2.085,-55.495 -2.086,-55.567 -2.086,-55.639C-2.086,-64.838 5.397,-72.323 14.597,-72.323C23.795,-72.323 31.279,-64.838 31.279,-55.639C31.279,-46.441 23.795,-38.955 14.597,-38.955C14.469,-38.955 14.344,-38.958 14.218,-38.961L-0.82,-28.232C-0.812,-28.035 -0.806,-27.837 -0.806,-27.639C-0.806,-20.734 -6.422,-15.117 -13.327,-15.117C-19.388,-15.117 -24.456,-19.444 -25.604,-25.171L-42.561,-32.182C-37.311,-13.614 -20.251,0 0,0C24.432,0 44.236,-19.807 44.236,-44.238C44.236,-68.669 24.432,-88.474 0,-88.474" style="fill:white;fill-rule:nonzero;"/>
            </g>
            <g transform="matrix(1,0,0,1,61.9124,97.2683)">
                <path d="M0,11.59L-5.434,9.345C-4.47,11.351 -2.804,13.028 -0.592,13.951C4.189,15.944 9.702,13.674 11.695,8.89C12.66,6.573 12.666,4.02 11.709,1.699C10.754,-0.622 8.952,-2.431 6.635,-3.398C4.336,-4.354 1.873,-4.319 -0.292,-3.503L5.323,-1.182C8.85,0.288 10.517,4.338 9.047,7.865C7.579,11.392 3.527,13.061 0,11.59" style="fill:white;fill-rule:nonzero;"/>
            </g>
            <g transform="matrix(1,0,0,1,84.5389,74.5887)">
                <path d="M0,-0.037C0,-4.649 3.74,-8.387 8.351,-8.387C12.963,-8.387 16.702,-4.649 16.702,-0.037C16.702,4.575 12.963,8.313 8.351,8.313C3.74,8.313 0,4.575 0,-0.037M19.448,-0.017C19.448,-6.147 14.462,-11.135 8.333,-11.135C2.203,-11.135 -2.784,-6.147 -2.784,-0.017C-2.784,6.111 2.203,11.098 8.333,11.098C14.462,11.098 19.448,6.111 19.448,-0.017" style="fill:white;fill-rule:nonzero;"/>
            </g>
            <g transform="matrix(1,0,0,1,169.755,99.9429)">
                <path d="M0,-27.94L-2.964,-22.729C-5.247,-24.325 -8.341,-25.285 -11.042,-25.285C-14.129,-25.285 -16.039,-24.007 -16.039,-21.717C-16.039,-18.937 -12.646,-18.29 -7.603,-16.479C-2.182,-14.562 0.934,-12.308 0.934,-7.344C0.934,-0.552 -4.408,3.264 -12.086,3.264C-15.828,3.264 -20.342,2.298 -23.812,0.188L-21.65,-5.589C-18.831,-4.1 -15.459,-3.218 -12.453,-3.218C-8.401,-3.218 -6.475,-4.713 -6.475,-6.922C-6.475,-9.452 -9.412,-10.212 -14.153,-11.782C-19.556,-13.586 -23.3,-15.953 -23.3,-21.448C-23.3,-27.644 -18.337,-31.204 -11.196,-31.204C-6.22,-31.204 -2.22,-29.627 0,-27.94" style="fill:white;fill-rule:nonzero;"/>
            </g>
            <g transform="matrix(1,0,0,1,192.924,96.6508)">
                <path d="M0,-21.355L0,5.985L-6.978,5.985L-6.978,-21.355L-17.108,-21.355L-17.108,-27.34L10.101,-27.34L10.101,-21.355L0,-21.355Z" style="fill:white;fill-rule:nonzero;"/>
            </g>
            <g transform="matrix(1,0,0,1,217.737,96.6673)">
                <path d="M0,-21.389L0,-13.88L13.356,-13.88L13.356,-7.895L0,-7.895L0,-0.072L15.496,-0.072L15.496,5.968L-6.977,5.968L-6.977,-27.357L15.496,-27.357L15.496,-21.389L0,-21.389Z" style="fill:white;fill-rule:nonzero;"/>
            </g>
            <g transform="matrix(1,0,0,1,255.255,94.6857)">
                <path d="M0,-17.425L-4.55,-4.082L4.646,-4.082L0,-17.425ZM-6.445,1.479L-8.651,7.95L-15.967,7.95L-3.472,-25.375L3.553,-25.375L16.401,7.95L8.837,7.95L6.583,1.479L-6.445,1.479Z" style="fill:white;fill-rule:nonzero;"/>
            </g>
            <g transform="matrix(1,0,0,1,307.472,89.7543)">
                <path d="M0,-7.563L-9.119,11.91L-13.057,11.91L-22.029,-7.389L-22.029,12.881L-28.713,12.881L-28.713,-20.444L-22.045,-20.444L-10.844,3.612L-0.043,-20.444L6.684,-20.444L6.684,12.881L0.001,12.881L0,-7.563Z" style="fill:white;fill-rule:nonzero;"/>
            </g>
            <g transform="matrix(1,0,0,1,322.243,73.7643)">
                <path d="M0,-0.487L0.815,-0.487C1.342,-0.487 1.653,-0.818 1.653,-1.234C1.653,-1.654 1.43,-1.924 0.813,-1.924L0,-1.924L0,-0.487ZM0.86,-2.619C2.055,-2.619 2.456,-1.987 2.456,-1.304C2.456,-0.678 2.085,-0.258 1.633,-0.045L2.704,1.963L1.827,1.963L0.924,0.184L-0.007,0.184L-0.007,1.963L-0.737,1.963L-0.737,-2.619L0.86,-2.619ZM-3.052,-0.25C-3.052,2.146 -1.327,3.651 0.795,3.651C2.91,3.651 4.628,2.146 4.628,-0.25C4.628,-2.653 2.91,-4.135 0.795,-4.135C-1.321,-4.135 -3.052,-2.635 -3.052,-0.25M5.405,-0.25C5.405,2.614 3.259,4.399 0.795,4.399C-1.676,4.399 -3.828,2.614 -3.828,-0.25C-3.828,-3.114 -1.676,-4.886 0.795,-4.886C3.259,-4.886 5.405,-3.114 5.405,-0.25" style="fill:white;fill-rule:nonzero;"/>
            </g>
        </g>
    </g>
</svg>
