<?xml version="1.0" encoding="UTF-8" standalone="no"?><!DOCTYPE svg PUBLIC "-//W3C//DTD SVG 1.1//EN" "http://www.w3.org/Graphics/SVG/1.1/DTD/svg11.dtd"><svg width="100%" height="100%" viewBox="0 0 2500 2500" version="1.1" xmlns="http://www.w3.org/2000/svg" xmlns:xlink="http://www.w3.org/1999/xlink" xml:space="preserve" xmlns:serif="http://www.serif.com/" style="fill-rule:evenodd;clip-rule:evenodd;stroke-linejoin:round;stroke-miterlimit:2;"><circle cx="1250" cy="1250" r="1250" style="fill:#fff;"/><g id="Layer-1" serif:id="Layer 1"></g><g transform="matrix(4.11746e-16,6.72433,-6.72433,4.11746e-16,2577.65,-270.564)"><g transform="matrix(0.919104,-0.394014,0.394014,0.919104,-124.532,132.25)"><text x="259.806px" y="369.4px" style="font-family:'Alexandria-Black', 'Alexandria';font-weight:900;font-size:78.075px;">M</text></g><g transform="matrix(0.605567,-0.795795,0.795795,0.605567,-123.805,401.982)"><text x="343.61px" y="325.883px" style="font-family:'Alexandria-Black', 'Alexandria';font-weight:900;font-size:78.075px;">O</text></g><g transform="matrix(0.166749,-0.985999,0.985999,0.166749,72.2797,597.976)"><text x="389.937px" y="256.223px" style="font-family:'Alexandria-Black', 'Alexandria';font-weight:900;font-size:78.075px;">N</text></g><g transform="matrix(-0.299461,-0.954109,0.954109,-0.299461,351.262,607.192)"><text x="398.542px" y="174.642px" style="font-family:'Alexandria-Black', 'Alexandria';font-weight:900;font-size:78.075px;">R</text></g><g transform="matrix(-0.69114,-0.722721,0.722721,-0.69114,554.794,440.428)"><text x="371.507px" y="101.666px" style="font-family:'Alexandria-Black', 'Alexandria';font-weight:900;font-size:78.075px;">O</text></g><g transform="matrix(-0.941047,-0.338276,0.338276,-0.941047,585.966,193.039)"><text x="309.804px" y="45.46px" style="font-family:'Alexandria-Black', 'Alexandria';font-weight:900;font-size:78.075px;">E</text></g></g><path d="M1250,623.797c345.611,-0 626.203,280.592 626.203,626.203c0,345.611 -280.592,626.203 -626.203,626.203c-345.611,0 -626.203,-280.592 -626.203,-626.203c-0,-345.611 280.592,-626.203 626.203,-626.203Zm-0,195.144c237.908,-0 431.059,193.151 431.059,431.059c0,237.908 -193.151,431.059 -431.059,431.059c-237.908,0 -431.059,-193.151 -431.059,-431.059c-0,-237.908 193.151,-431.059 431.059,-431.059Z"/><g transform="matrix(4.11746e-16,6.72433,-6.72433,4.11746e-16,2231.05,76.0338)"><g transform="matrix(-0.965216,-0.261453,0.261453,-0.965216,260.03,570.997)"><text x="167.998px" y="268.201px" style="font-family:'Alexandria-Black', 'Alexandria';font-weight:900;font-size:65.682px;">H</text></g><g transform="matrix(-0.765487,-0.643452,0.643452,-0.765487,44.0319,525.009)"><text x="117.689px" y="254.481px" style="font-family:'Alexandria-Black', 'Alexandria';font-weight:900;font-size:65.682px;">A</text></g><g transform="matrix(-0.430184,-0.902741,0.902741,-0.430184,-88.1434,384.327)"><text x="77.223px" y="219.982px" style="font-family:'Alexandria-Black', 'Alexandria';font-weight:900;font-size:65.682px;">R</text></g><g transform="matrix(0.00158568,-0.999999,0.999999,0.00158568,-121.841,231.046)"><text x="54.786px" y="176.54px" style="font-family:'Alexandria-Black', 'Alexandria';font-weight:900;font-size:65.682px;">M</text></g><g transform="matrix(0.461483,-0.887149,0.887149,0.461483,-70.9518,111.24)"><text x="56.152px" y="114.063px" style="font-family:'Alexandria-Black', 'Alexandria';font-weight:900;font-size:65.682px;">O</text></g><g transform="matrix(0.789875,-0.613268,0.613268,0.789875,-24.0653,63.7376)"><text x="80.979px" y="66.987px" style="font-family:'Alexandria-Black', 'Alexandria';font-weight:900;font-size:65.682px;">N</text></g><g transform="matrix(0.969555,-0.244874,0.244874,0.969555,-4.9846,31.035)"><text x="122.317px" y="35.563px" style="font-family:'Alexandria-Black', 'Alexandria';font-weight:900;font-size:65.682px;">Y</text></g></g><g id="text1"></g></svg>