<?xml version="1.0" encoding="utf-8"?>
<!-- generated at drububu.com  -->
<!DOCTYPE svg PUBLIC "-//W3C//DTD SVG 1.1//EN" "http://www.w3.org/Graphics/SVG/1.1/DTD/svg11.dtd">
<svg version="1.1" preserveAspectRatio="xMinYMin meet" xmlns="http://www.w3.org/2000/svg" xmlns:xlink="http://www.w3.org/1999/xlink" x="0px" y="0px" width="256px" height="256px" viewBox="0 0 256 256">
<path d="M0 0h256v40h-256v-40z" fill="rgb(0,0,0)"/>
<path d="M121 9h2v1h1v1h1v2h1v1h1v1h1v2h1v3h1v5h-1v1h-1v1h-1v1h-4v3h-1v2h-1v-3
	h1v-1h-1v-1h-4v-1h-1v-1h-1v-1h-1v-5h1v-3h1v-2h1v-1h1v-1h1v-2h1v-1h1v-1z" fill="rgb(71,255,76)"/>
<path d="M151 9h8v1h2v1h1v1h1v1h1v1h1v2h1v8h-1v2h-1v1h-1v1h-1v1h-1v1h-2v1h-8v-1
	h-2v-1h-1v-1h-1v-1h-1v-1h-1v-2h-1v-8h1v-2h1v-1h1v-1h1v-1h1v-1h2v-1z" fill="rgb(234,151,254)"/>
<path d="M18 11h9v5h5v7h-8v-2h-4v2h-2v-12z" fill="rgb(71,255,76)"/>
<path d="M29 11h3v3h-3v-3z" fill="rgb(71,255,76)"/>
<path d="M34 11h4v2h6v-2h4v12h-10v-4h-4v-8z" fill="rgb(71,255,76)"/>
<path d="M50 11h14v2h-14v-2z" fill="rgb(71,255,76)"/>
<path d="M66 11h14v7h-5v5h-9v-12z" fill="rgb(71,255,76)"/>
<path d="M82 11h14v6h-2v4h2v2h-14v-6h2v-4h-2v-2z" fill="rgb(71,255,76)"/>
<path d="M121 11h2v2h-2v-2z" fill="rgb(0,0,0)"/>
<path d="M152 11h6v1h2v1h1v1h1v1h1v2h1v2h-7v-2h-1v-1h-2v1h-1v2h-7v-2h1v-2h1v-1
	h1v-1h1v-1h2v-1z" fill="rgb(0,0,0)"/>
<path d="M182 11h8v1h-1v1h-5v3h-1v1h-1v-6z" fill="rgb(228,0,191)"/>
<path d="M230 11h8v6h-1v-1h-1v-3h-5v-1h-1v-1z" fill="rgb(228,0,191)"/>
<path d="M119 14h6v1h1v2h1v3h1v5h-1v1h-10v-1h-1v-5h1v-3h1v-2h1v-1z" fill="rgb(0,0,0)"/>
<path d="M199 14h2v1h1v5h2v-4h1v1h1v7h4v3h-1v1h-2v1h-1v3h-1v1h-1v1h-8v-6h1v-1h1
	v-3h6v-2h-7v-1h-1v-2h1v-1h1v-3h1v-1z" fill="rgb(255,255,255)"/>
<path d="M50 15h14v8h-4v-2h-6v2h-4v-8z" fill="rgb(71,255,76)"/>
<path d="M121 16h2v3h3v2h-3v3h-2v-3h-3v-2h3v-3z" fill="rgb(71,255,76)"/>
<path d="M209 16h14v1h1v8h-1v1h-1v-2h-2v3h-1v1h-6v-1h-1v-5h-4v-5h1v-1z" fill="rgb(255,255,255)"/>
<path d="M77 20h3v3h-3v-3z" fill="rgb(71,255,76)"/>
<path d="M215 20h2v1h1v2h-1v1h-2v-1h-1v-2h1v-1z" fill="rgb(0,0,0)"/>
<path d="M34 21h2v2h-2v-2z" fill="rgb(71,255,76)"/>
<path d="M146 21h7v2h1v1h2v-1h1v-2h7v2h-1v2h-1v1h-1v1h-1v1h-2v1h-6v-1h-2v-1h-1
	v-1h-1v-1h-1v-2h-1v-2z" fill="rgb(0,0,0)"/>
<path d="M202 26h4v1h-1v1h-3v-2z" fill="rgb(0,0,0)"/>
<path d="M19 27h4v1h1v4h-6v-4h1v-1z" fill="rgb(228,0,191)"/>
<path d="M28 27h4v1h1v4h-6v-4h1v-1z" fill="rgb(228,0,191)"/>
<path d="M37 27h4v1h1v4h-6v-4h1v-1z" fill="rgb(228,0,191)"/>
<path d="M46 27h4v1h1v4h-6v-4h1v-1z" fill="rgb(228,0,191)"/>
<path d="M55 27h4v1h1v4h-6v-4h1v-1z" fill="rgb(228,0,191)"/>
<path d="M64 27h4v1h1v4h-6v-4h1v-1z" fill="rgb(228,0,191)"/>
<path d="M73 27h4v1h1v4h-6v-4h1v-1z" fill="rgb(120,120,120)"/>
<path d="M82 27h4v1h1v4h-6v-4h1v-1z" fill="rgb(120,120,120)"/>
<path d="M91 27h4v1h1v4h-6v-4h1v-1z" fill="rgb(120,120,120)"/>
<path d="M114 30h4v3h-4v-3z" fill="rgb(71,255,76)"/>
<path d="M126 30h4v3h-4v-3z" fill="rgb(120,120,120)"/>
<path d="M182 31h1v1h1v3h5v1h1v1h-8v-6z" fill="rgb(228,0,191)"/>
<path d="M237 31h1v6h-8v-1h1v-1h5v-3h1v-1z" fill="rgb(228,0,191)"/>
<path d="M18 33h6v2h-6v-2z" fill="rgb(228,0,191)"/>
<path d="M27 33h6v2h-6v-2z" fill="rgb(228,0,191)"/>
<path d="M36 33h6v2h-6v-2z" fill="rgb(228,0,191)"/>
<path d="M45 33h6v2h-6v-2z" fill="rgb(228,0,191)"/>
<path d="M54 33h6v2h-6v-2z" fill="rgb(228,0,191)"/>
<path d="M63 33h6v2h-6v-2z" fill="rgb(228,0,191)"/>
<path d="M72 33h6v2h-6v-2z" fill="rgb(120,120,120)"/>
<path d="M81 33h6v2h-6v-2z" fill="rgb(120,120,120)"/>
<path d="M90 33h6v2h-6v-2z" fill="rgb(120,120,120)"/>
<path d="M148 33h3v1h1v3h-1v1h-3v-1h-1v-3h1v-1z" fill="rgb(234,151,254)"/>
<path d="M159 33h3v1h1v3h-1v1h-3v-1h-1v-3h1v-1z" fill="rgb(120,120,120)"/>
<path d="M114 35h4v3h-4v-3z" fill="rgb(71,255,76)"/>
<path d="M120 35h4v3h-4v-3z" fill="rgb(71,255,76)"/>
<path d="M126 35h4v3h-4v-3z" fill="rgb(120,120,120)"/>
<path d="M0 40h144v32h-16v16h-16v39h1v6h1v8h-1v6h-1v5h16v48h16v16h1v1h-1v1h1v1
	h-1v1h-1v1h-1v22h1v1h1v-12h1v-1h-1v-3h2v2h1v4h-1v2h-1v7h1v1h1v-5h1v8h1v-1h1v-9
	h1v4h1v-1h1v-6h-1v-2h1v-1h-1v-1h1v-3h1v16h1v2h2v-18h1v12h1v-1h1v-6h1v-1h-1v-3h1
	v-1h1v1h1v-1h-1v-1h1v-1h1v1h1v1h-1v1h1v-1h1v1h1v-1h-1v-1h1v-1h1v1h1v1h-1v1h1
	v-1h1v1h1v-1h-1v-1h1v-1h1v1h1v1h-1v1h1v-1h1v1h1v-1h-1v-1h1v-1h1v1h1v1h-1v1h1v-1
	h1v1h1v-1h-1v-1h1v-1h1v1h1v1h-1v1h1v-1h1v1h1v-1h-1v-1h1v-1h1v1h1v1h-1v1h1v-1h1
	v1h1v-1h-1v-1h1v-1h1v1h1v1h-1v1h1v-1h1v1h1v-1h-1v-1h1v-1h1v-1h-1v-1h1v-1h-1v-1
	h1v-21h20v-128h-20v-32h64v216h-256v-72h16v16h1v1h-1v1h1v1h-1v1h1v1h-1v1h1v1h-1
	v1h1v-1h1v1h1v1h1v1h1v1h1v-1h1v-1h1v1h1v1h1v-1h1v-1h1v1h1v1h1v-1h1v-1h1v1h1v1h1
	v-1h1v-1h1v1h1v1h1v-1h1v-1h1v1h1v1h1v-1h1v-1h1v1h1v1h1v-1h1v-1h1v1h1v1h1v-1h1
	v-1h1v1h1v1h1v-1h1v-1h1v1h1v1h1v-1h1v-1h1v1h1v1h1v-1h1v-1h1v-1h-1v-1h1v-1h-1v-1
	h1v-21h16v-48h-16v-16h16v-5h-1v-2h-1v-3h1v-2h1v-6h-1v-2h-1v-3h1v-2h1v-23h-32
	v16h-16v-32h-32v-16z" fill="rgb(92,211,229)"/>
<path d="M144 40h1v33h-16v16h-16v31h16v48h-1v-44h-16v-36h16v-16h16v-32z" fill="rgb(255,202,182)"/>
<path d="M145 40h15v5h1v-5h15v6h1v-6h14v16h-4v1h4v15h-6v1h7v5h1v-5h15v15h-9v1h9
	v15h-8v1h8v3h-7v1h-3v1h-1v1h-1v1h-1v2h-2v-5h-1v5h-2v-1h-2v-1h-1v-1h-5v1h-2v1
	h-1v1h-1v1h-1v-7h-1v7h-1v3h1v2h-15v-9h-1v9h-6v1h6v12h-1v1h-2v-1h-1v-1h-2v2h1v1h1
	v1h-1v2h2v-1h1v1h1v1h1v1h-1v1h-1v1h-3v1h-3v1h-2v1h-3v1h-2v-4h-1v4h-1v1h-2v1h-1
	v1h-1v1h-1v1h-1v3h1v2h-1v3h1v1h2v1h1v1h-1v1h1v1h3v4h-15v-15h5v-1h-5v-15h6v-1
	h-6v-15h7v-1h-7v-8h-1v8h-15v-15h7v-1h-7v-15h15v8h1v-8h4v-1h-4v-15h15v3h1v-3h3v-1
	h-3v-15h4v-1h-4v-16z" fill="rgb(234,234,234)"/>
<path d="M160 40h1v5h-1v-5z" fill="rgb(177,177,177)"/>
<path d="M176 40h1v6h-1v-6z" fill="rgb(177,177,177)"/>
<path d="M191 40h1v32h16v1h-17v-33z" fill="rgb(255,202,182)"/>
<path d="M51 41h1v1h1v9h1v-4h1v1h1v6h-1v2h-5v-2h-1v-2h-1v-7h1v-1h1v5h1v-8z" fill="rgb(40,186,35)"/>
<path d="M211 41h1v1h1v9h1v-4h1v1h1v6h-1v2h-5v-2h-1v-2h-1v-7h1v-1h1v5h1v-8z" fill="rgb(40,186,35)"/>
<path d="M231 41h2v2h1v13h-3v-15z" fill="rgb(40,186,35)"/>
<path d="M58 43h2v13h-3v-11h1v-2z" fill="rgb(40,186,35)"/>
<path d="M218 43h2v13h-3v-11h1v-2z" fill="rgb(40,186,35)"/>
<path d="M239 44h1v12h-2v-11h1v-1z" fill="rgb(40,186,35)"/>
<path d="M225 45h1v7h1v-4h1v1h1v2h1v4h-1v1h-5v-10h1v-1z" fill="rgb(40,186,35)"/>
<path d="M160 46h1v4h-1v-4z" fill="rgb(177,177,177)"/>
<path d="M61 49h1v1h1v6h-2v-7z" fill="rgb(40,186,35)"/>
<path d="M162 49h5v1h1v3h-1v1h1v1h-6v-6z" fill="rgb(177,177,177)"/>
<path d="M221 49h1v1h1v6h-2v-7z" fill="rgb(40,186,35)"/>
<path d="M176 50h1v6h6v1h-6v7h-1v-7h-3v-1h3v-6z" fill="rgb(177,177,177)"/>
<path d="M235 50h1v1h1v5h-2v-6z" fill="rgb(40,186,35)"/>
<path d="M160 51h1v5h6v1h-6v4h-1v-4h-10v-1h10v-5z" fill="rgb(177,177,177)"/>
<path d="M0 56h32v32h16v-16h32v20h-16v44h16v16h-1v-15h-16v-49h16v-15h-30v16h-18
	v-32h-31v-1z" fill="rgb(255,202,182)"/>
<path d="M50 56h5v2h1v6h-1v1h-1v-4h-1v9h-1v1h-1v-8h-1v5h-1v-1h-1v-7h1v-2h1v-2z" fill="rgb(74,135,195)"/>
<path d="M57 56h3v13h-2v-2h-1v-11z" fill="rgb(74,135,195)"/>
<path d="M61 56h2v6h-1v1h-1v-7z" fill="rgb(74,135,195)"/>
<path d="M145 56h4v1h-4v-1z" fill="rgb(177,177,177)"/>
<path d="M168 56h4v1h-4v-1z" fill="rgb(177,177,177)"/>
<path d="M187 56h4v1h-4v-1z" fill="rgb(177,177,177)"/>
<path d="M210 56h5v2h1v6h-1v1h-1v-4h-1v9h-1v1h-1v-8h-1v5h-1v-1h-1v-7h1v-2h1v-2z" fill="rgb(74,135,195)"/>
<path d="M217 56h3v13h-2v-2h-1v-11z" fill="rgb(74,135,195)"/>
<path d="M221 56h2v6h-1v1h-1v-7z" fill="rgb(74,135,195)"/>
<path d="M224 56h5v1h1v4h-1v2h-1v1h-1v-4h-1v7h-1v-1h-1v-10z" fill="rgb(74,135,195)"/>
<path d="M231 56h3v13h-1v2h-2v-15z" fill="rgb(74,135,195)"/>
<path d="M235 56h2v5h-1v1h-1v-6z" fill="rgb(74,135,195)"/>
<path d="M238 56h2v12h-1v-1h-1v-11z" fill="rgb(74,135,195)"/>
<path d="M0 57h1v15h2v1h-2v15h15v-8h1v8h4v1h-4v15h5v1h-5v2h-1v-2h-15v15h5v1h-5
	v15h7v1h-7v15h-1v-95z" fill="rgb(177,177,177)"/>
<path d="M1 57h15v4h1v-4h14v15h-2v1h2v15h-6v1h7v6h1v-6h15v10h1v-10h4v-1h-4v-15
	h15v6h1v-6h14v15h-14v-8h-1v8h-5v1h4v15h-6v1h6v15h-5v1h5v15h-14v-6h-1v6h-6v1h6v3
	h1v-3h15v4h1v-4h14v15h-30v-6h-1v6h-15v-7h-1v7h-15v-6h-1v6h-15v-15h7v-1h-7v-15
	h5v-1h-5v-15h15v2h1v-2h5v-1h-5v-15h4v-1h-4v-8h-1v8h-15v-15h2v-1h-2v-15z" fill="rgb(234,234,234)"/>
<path d="M16 57h1v4h-1v-4z" fill="rgb(177,177,177)"/>
<path d="M103 57h2v2h1v13h-3v-15z" fill="rgb(40,186,35)"/>
<path d="M111 60h1v12h-2v-11h1v-1z" fill="rgb(40,186,35)"/>
<path d="M178 60h2v8h-2v-8z" fill="rgb(177,177,177)"/>
<path d="M97 61h1v7h1v-4h1v1h1v2h1v4h-1v1h-5v-10h1v-1z" fill="rgb(40,186,35)"/>
<path d="M160 62h1v3h-1v-3z" fill="rgb(177,177,177)"/>
<path d="M16 63h1v9h11v1h-11v6h-1v-6h-12v-1h12v-9z" fill="rgb(177,177,177)"/>
<path d="M107 66h1v1h1v5h-2v-6z" fill="rgb(40,186,35)"/>
<path d="M160 66h1v6h8v1h-8v5h-1v-5h-11v-1h11v-6z" fill="rgb(177,177,177)"/>
<path d="M176 66h1v6h5v1h-5v7h-1v-7h-6v-1h6v-6z" fill="rgb(177,177,177)"/>
<path d="M18 69h5v2h-5v-2z" fill="rgb(177,177,177)"/>
<path d="M29 72h2v1h-2v-1z" fill="rgb(177,177,177)"/>
<path d="M96 72h5v1h1v4h-1v2h-1v1h-1v-4h-1v7h-1v-1h-1v-10z" fill="rgb(74,135,195)"/>
<path d="M103 72h3v13h-1v2h-2v-15z" fill="rgb(74,135,195)"/>
<path d="M107 72h2v5h-1v1h-1v-6z" fill="rgb(74,135,195)"/>
<path d="M110 72h2v12h-1v-1h-1v-11z" fill="rgb(74,135,195)"/>
<path d="M145 72h3v1h-3v-1z" fill="rgb(177,177,177)"/>
<path d="M185 72h6v1h-6v-1z" fill="rgb(177,177,177)"/>
<path d="M208 72h4v100h-36v-4h32v-96z" fill="rgb(194,116,0)"/>
<path d="M64 73h1v6h-1v-6z" fill="rgb(177,177,177)"/>
<path d="M144 73h1v3h-1v-3z" fill="rgb(177,177,177)"/>
<path d="M192 73h1v5h-1v-5z" fill="rgb(177,177,177)"/>
<path d="M144 77h1v2h-1v-2z" fill="rgb(177,177,177)"/>
<path d="M160 79h1v2h-1v-2z" fill="rgb(177,177,177)"/>
<path d="M64 80h1v8h-1v-8z" fill="rgb(177,177,177)"/>
<path d="M192 81h1v3h-1v-3z" fill="rgb(177,177,177)"/>
<path d="M144 82h1v6h3v1h-3v7h-1v-7h-10v-1h10v-6z" fill="rgb(177,177,177)"/>
<path d="M160 82h1v6h6v-1h3v1h6v-5h1v5h6v1h-6v9h1v3h-1v3h6v1h-6v2h-1v-2h-4v1h-3
	v-1h-1v1h-3v-1h-4v5h-1v-5h-4v-1h4v-4h-1v-5h1v-6h-9v-1h9v-6z" fill="rgb(177,177,177)"/>
<path d="M192 85h1v3h5v1h-5v5h-1v-5h-7v-1h7v-3z" fill="rgb(177,177,177)"/>
<path d="M25 88h6v1h-6v-1z" fill="rgb(177,177,177)"/>
<path d="M49 88h4v1h-4v-1z" fill="rgb(177,177,177)"/>
<path d="M54 88h4v1h-4v-1z" fill="rgb(177,177,177)"/>
<path d="M59 88h4v1h-4v-1z" fill="rgb(177,177,177)"/>
<path d="M129 88h4v1h-4v-1z" fill="rgb(177,177,177)"/>
<path d="M199 88h9v1h-9v-1z" fill="rgb(177,177,177)"/>
<path d="M1 89h15v15h-15v-15z" fill="rgb(234,234,234)"/>
<path d="M32 89h1v6h-1v-6z" fill="rgb(177,177,177)"/>
<path d="M48 89h1v10h-1v-10z" fill="rgb(177,177,177)"/>
<path d="M128 89h1v8h-1v-8z" fill="rgb(177,177,177)"/>
<path d="M2 91h5v5h-5v-5z" fill="rgb(177,177,177)"/>
<path d="M9 91h5v5h-5v-5z" fill="rgb(177,177,177)"/>
<path d="M179 91h5v5h-5v-5z" fill="rgb(177,177,177)"/>
<path d="M186 91h5v5h-5v-5z" fill="rgb(177,177,177)"/>
<path d="M64 92h16v3h-1v2h-1v3h1v2h1v2h-16v-12z" fill="rgb(120,120,120)"/>
<path d="M192 95h1v4h-1v-4z" fill="rgb(177,177,177)"/>
<path d="M32 96h1v8h5v-1h4v1h3v-1h2v1h1v-3h1v3h7v1h-7v4h1v3h-1v2h1v3h-1v3h5v1
	h-5v7h-1v-7h-2v1h-3v-1h-4v1h-3v-1h-3v15h2v1h-2v4h-1v-4h-15v6h-1v-6h-3v-1h3v-15
	h-7v-1h7v-7h1v7h15v-5h-1v-3h1v-2h-1v-3h1v-2h-3v-1h3v-8z" fill="rgb(177,177,177)"/>
<path d="M232 96h5v1h1v1h1v1h1v5h-1v1h-1v1h-1v1h-5v-1h-1v-1h-1v-1h-1v-5h1v-1h1
	v-1h1v-1z" fill="rgb(40,186,35)"/>
<path d="M2 98h5v5h-5v-5z" fill="rgb(177,177,177)"/>
<path d="M9 98h5v5h-5v-5z" fill="rgb(194,116,0)"/>
<path d="M144 98h1v6h4v1h-4v6h-1v-6h-15v5h-1v-5h-7v-1h7v-5h1v5h15v-6z" fill="rgb(177,177,177)"/>
<path d="M179 98h5v5h-5v-5z" fill="rgb(177,177,177)"/>
<path d="M186 98h5v5h-5v-5z" fill="rgb(194,116,0)"/>
<path d="M232 99h2v1h1v-1h2v2h-1v1h1v2h-2v-1h-1v1h-2v-2h1v-1h-1v-2z" fill="rgb(223,18,89)"/>
<path d="M123 101h4v2h-4v-2z" fill="rgb(177,177,177)"/>
<path d="M192 101h1v3h6v1h-6v3h-1v-3h-5v-1h5v-3z" fill="rgb(177,177,177)"/>
<path d="M57 104h6v1h-6v-1z" fill="rgb(177,177,177)"/>
<path d="M64 104h16v2h-16v-2z" fill="rgb(153,255,245)"/>
<path d="M113 104h7v1h-7v-1z" fill="rgb(177,177,177)"/>
<path d="M152 104h3v1h-3v-1z" fill="rgb(177,177,177)"/>
<path d="M184 104h2v1h-2v-1z" fill="rgb(177,177,177)"/>
<path d="M200 104h8v1h-8v-1z" fill="rgb(177,177,177)"/>
<path d="M64 106h16v2h-1v2h-1v3h1v2h1v5h-16v-14z" fill="rgb(74,135,195)"/>
<path d="M226 106h3v1h1v1h1v3h-1v1h-1v1h-3v-1h-1v-1h-1v-3h1v-1h1v-1z" fill="rgb(40,186,35)"/>
<path d="M157 107h2v8h-2v-8z" fill="rgb(177,177,177)"/>
<path d="M16 108h1v4h-1v-4z" fill="rgb(177,177,177)"/>
<path d="M176 108h1v7h-1v-7z" fill="rgb(177,177,177)"/>
<path d="M201 108h7v12h-2v1h2v15h-3v1h3v15h-2v1h2v15h-15v-2h-1v2h-15v-4h-1v4
	h-15v-2h8v-1h3v-1h1v-1h1v-1h-1v-1h-1v-8h4v3h1v-3h4v-1h-4v-3h-1v3h-1v-1h-1v-1h-1
	v-1h-1v-1h-1v-5h-1v-6h2v-1h-2v-3h1v-3h-1v-2h-1v-1h-2v-3h1v-1h3v-1h5v3h1v-4h10v-1
	h-9v-1h-1v-4h1v-1h1v-1h1v-1h2v-1h5v1h1v1h2v1h2v4h1v-4h2v-2h1v-1h1v-1h1v-1h3v-1z" fill="rgb(177,177,177)"/>
<path d="M192 109h1v5h-1v-5z" fill="rgb(177,177,177)"/>
<path d="M160 111h1v9h15v1h-15v16h-1v-16h-6v-1h6v-9z" fill="rgb(177,177,177)"/>
<path d="M128 112h1v8h-1v-8z" fill="rgb(177,177,177)"/>
<path d="M144 112h1v1h-1v-1z" fill="rgb(177,177,177)"/>
<path d="M233 113h5v1h1v1h1v3h-1v1h-1v1h-5v-1h-1v-1h-1v-3h1v-1h1v-1z" fill="rgb(40,186,35)"/>
<path d="M144 114h1v5h-1v-5z" fill="rgb(177,177,177)"/>
<path d="M192 114h1v4h-1v-4z" fill="rgb(120,120,120)"/>
<path d="M175 115h1v3h-1v-3z" fill="rgb(177,177,177)"/>
<path d="M176 115h1v4h-1v-4z" fill="rgb(120,120,120)"/>
<path d="M143 118h1v1h1v1h-1v1h-1v-1h-1v-1h1v-1z" fill="rgb(92,211,229)"/>
<path d="M176 119h1v1h-1v-1z" fill="rgb(177,177,177)"/>
<path d="M177 119h1v1h-1v-1z" fill="rgb(234,234,234)"/>
<path d="M58 120h5v1h-5v-1z" fill="rgb(177,177,177)"/>
<path d="M129 120h7v1h-7v-1z" fill="rgb(177,177,177)"/>
<path d="M137 120h1v1h-1v-1z" fill="rgb(177,177,177)"/>
<path d="M139 120h4v1h-4v-1z" fill="rgb(177,177,177)"/>
<path d="M144 120h6v1h-5v1h-1v-2z" fill="rgb(177,177,177)"/>
<path d="M151 120h1v1h-1v-1z" fill="rgb(177,177,177)"/>
<path d="M176 120h11v1h-10v4h-1v-5z" fill="rgb(120,120,120)"/>
<path d="M188 120h3v1h-3v-1z" fill="rgb(120,120,120)"/>
<path d="M195 120h2v1h-2v-1z" fill="rgb(120,120,120)"/>
<path d="M199 120h5v1h-5v-1z" fill="rgb(120,120,120)"/>
<path d="M206 120h2v1h-2v-1z" fill="rgb(120,120,120)"/>
<path d="M17 121h15v15h-15v-15z" fill="rgb(234,234,234)"/>
<path d="M161 121h15v1h-5v1h-3v1h-1v3h-3v1h-2v8h-1v-15z" fill="rgb(234,234,234)"/>
<path d="M141 122h1v2h-1v-2z" fill="rgb(43,104,68)"/>
<path d="M142 122h3v2h-3v-2z" fill="rgb(55,172,107)"/>
<path d="M50 123h5v5h-5v-5z" fill="rgb(177,177,177)"/>
<path d="M57 123h5v5h-5v-5z" fill="rgb(177,177,177)"/>
<path d="M138 123h1v1h-1v-1z" fill="rgb(92,211,229)"/>
<path d="M112 124h16v12h-14v-3h-1v-6h-1v-3z" fill="rgb(120,120,120)"/>
<path d="M138 124h1v1h-1v-1z" fill="rgb(74,135,195)"/>
<path d="M139 124h1v1h-1v-1z" fill="rgb(92,211,229)"/>
<path d="M141 124h1v1h-1v-1z" fill="rgb(74,135,195)"/>
<path d="M142 124h3v4h-3v-1h-1v-1h-1v-1h2v-1z" fill="rgb(92,211,229)"/>
<path d="M139 125h1v1h-1v-1z" fill="rgb(74,135,195)"/>
<path d="M143 125h1v2h-1v-2z" fill="rgb(0,0,0)"/>
<path d="M192 125h1v3h-1v-3z" fill="rgb(120,120,120)"/>
<path d="M140 126h1v1h-1v-1z" fill="rgb(74,135,195)"/>
<path d="M176 126h1v7h-1v-7z" fill="rgb(120,120,120)"/>
<path d="M141 127h1v1h-1v-1z" fill="rgb(74,135,195)"/>
<path d="M164 127h2v1h-2v-1z" fill="rgb(59,69,130)"/>
<path d="M166 127h3v1h1v1h-1v1h1v1h-1v1h-3v-1h-3v-1h-1v-2h1v1h1v-1h2v-1z" fill="rgb(105,79,255)"/>
<path d="M141 128h1v1h-1v-1z" fill="rgb(180,0,39)"/>
<path d="M142 128h3v1h1v2h-1v1h-1v1h-1v-1h-1v-1h-1v-2h1v-1z" fill="rgb(223,18,89)"/>
<path d="M163 128h1v1h-1v-1z" fill="rgb(59,69,130)"/>
<path d="M167 128h1v2h-1v-2z" fill="rgb(229,72,0)"/>
<path d="M140 129h1v2h-1v-2z" fill="rgb(180,0,39)"/>
<path d="M164 129h2v1h-2v-1z" fill="rgb(229,72,0)"/>
<path d="M169 129h1v1h-1v-1z" fill="rgb(229,72,0)"/>
<path d="M192 129h1v3h-1v-3z" fill="rgb(120,120,120)"/>
<path d="M48 130h1v6h14v1h-14v3h-1v-3h-6v-1h6v-6z" fill="rgb(177,177,177)"/>
<path d="M50 130h5v5h-5v-5z" fill="rgb(177,177,177)"/>
<path d="M57 130h5v5h-5v-5z" fill="rgb(194,116,0)"/>
<path d="M162 130h1v1h1v4h-1v-1h-1v-4z" fill="rgb(59,69,130)"/>
<path d="M170 130h1v3h-1v-3z" fill="rgb(234,234,234)"/>
<path d="M141 131h1v1h-1v-1z" fill="rgb(180,0,39)"/>
<path d="M164 131h1v3h-1v-3z" fill="rgb(74,135,195)"/>
<path d="M165 131h1v1h-1v-1z" fill="rgb(0,0,0)"/>
<path d="M169 131h1v1h-1v-1z" fill="rgb(0,0,0)"/>
<path d="M142 132h1v1h-1v-1z" fill="rgb(180,0,39)"/>
<path d="M144 132h1v4h5v1h-5v4h-1v-4h-5v-1h5v-4z" fill="rgb(177,177,177)"/>
<path d="M154 132h2v1h1v1h1v1h-2v-1h-1v-1h-1v-1z" fill="rgb(229,72,0)"/>
<path d="M165 132h5v1h-4v1h-1v-2z" fill="rgb(92,211,229)"/>
<path d="M25 133h5v2h-5v-2z" fill="rgb(177,177,177)"/>
<path d="M154 133h1v1h-1v-1z" fill="rgb(163,40,0)"/>
<path d="M159 133h1v2h-1v1h1v1h1v1h-2v-1h-1v-1h-1v-1h1v-1h1v-1z" fill="rgb(153,255,245)"/>
<path d="M166 133h4v3h-1v1h-1v1h-2v-1h-1v-1h-1v-2h2v-1z" fill="rgb(180,0,39)"/>
<path d="M192 133h1v3h4v1h-4v3h-1v-3h-3v-1h3v-3z" fill="rgb(120,120,120)"/>
<path d="M155 134h1v1h-1v-1z" fill="rgb(163,40,0)"/>
<path d="M162 134h1v2h-1v-2z" fill="rgb(180,0,39)"/>
<path d="M156 135h1v1h-1v-1z" fill="rgb(163,40,0)"/>
<path d="M159 135h1v1h-1v-1z" fill="rgb(234,234,234)"/>
<path d="M163 135h1v1h1v1h1v1h2v-1h1v-1h1v6h-1v-1h-1v-1h-2v1h-1v1h-5v-2h1v-2h1
	v-2h1v-1z" fill="rgb(223,18,89)"/>
<path d="M9 136h2v1h-2v-1z" fill="rgb(177,177,177)"/>
<path d="M36 136h4v1h-4v-1z" fill="rgb(177,177,177)"/>
<path d="M114 136h14v2h-14v-2z" fill="rgb(153,255,245)"/>
<path d="M129 136h6v1h-6v-1z" fill="rgb(177,177,177)"/>
<path d="M137 136h1v1h-1v-1z" fill="rgb(177,177,177)"/>
<path d="M155 136h1v1h-1v-1z" fill="rgb(177,177,177)"/>
<path d="M156 136h2v1h-1v1h-2v-1h1v-1z" fill="rgb(148,202,255)"/>
<path d="M161 136h1v2h-1v-2z" fill="rgb(180,0,39)"/>
<path d="M170 136h2v1h-2v-1z" fill="rgb(120,120,120)"/>
<path d="M180 136h6v1h-6v-1z" fill="rgb(120,120,120)"/>
<path d="M199 136h5v1h-5v-1z" fill="rgb(120,120,120)"/>
<path d="M205 136h3v1h-3v-1z" fill="rgb(120,120,120)"/>
<path d="M64 137h1v4h-1v-4z" fill="rgb(177,177,177)"/>
<path d="M158 137h1v1h-1v-1z" fill="rgb(148,202,255)"/>
<path d="M74 138h4v13h-13v-2h-1v-1h1v-1h3v-1h3v1h2v-1h2v-2h-1v-2h1v-2h-1v-2z" fill="rgb(177,177,177)"/>
<path d="M114 138h14v14h-16v-5h1v-6h1v-3z" fill="rgb(74,135,195)"/>
<path d="M159 138h1v1h-1v-1z" fill="rgb(148,202,255)"/>
<path d="M160 138h1v2h-1v-2z" fill="rgb(180,0,39)"/>
<path d="M74 140h1v2h-1v-2z" fill="rgb(120,120,120)"/>
<path d="M159 140h1v2h-1v-2z" fill="rgb(180,0,39)"/>
<path d="M166 140h2v3h1v4h-1v-1h-1v-1h-2v1h-1v1h-1v-1h-1v-2h1v-1h1v-1h1v-1h1v-1z" fill="rgb(0,0,0)"/>
<path d="M48 141h1v4h-1v-4z" fill="rgb(177,177,177)"/>
<path d="M158 141h1v1h-1v-1z" fill="rgb(177,177,177)"/>
<path d="M168 141h1v1h1v1h1v5h1v6h-1v1h-3v-2h1v-1h1v-3h-1v-6h-1v-2z" fill="rgb(255,117,16)"/>
<path d="M176 141h1v6h-1v-6z" fill="rgb(120,120,120)"/>
<path d="M32 142h1v2h-1v-2z" fill="rgb(177,177,177)"/>
<path d="M64 142h1v4h-1v-4z" fill="rgb(177,177,177)"/>
<path d="M144 142h1v4h-1v-4z" fill="rgb(177,177,177)"/>
<path d="M155 142h3v3h-1v3h-1v3h-1v1h-7v1h6v2h4v1h-1v2h-1v2h-1v1h-1v1h-1v1h1v1
	h1v1h3v1h2v2h-12v-2h2v-1h1v-2h-2v-1h-3v-1h-1v-3h-1v3h-4v-1h-2v-1h-1v-3h1v-2h-1
	v-3h1v-1h1v-1h1v-1h1v-1h2v-1h1v2h1v-2h2v-1h3v-1h2v-1h3v-1z" fill="rgb(177,177,177)"/>
<path d="M158 142h1v3h-1v-3z" fill="rgb(229,72,0)"/>
<path d="M159 142h5v1h-1v1h-1v3h-1v2h-1v2h-1v3h-2v-1h-1v-2h1v-3h1v-3h1v-3z" fill="rgb(255,117,16)"/>
<path d="M87 143h5v1h2v1h2v2h1v3h-1v2h-2v1h-2v1h-5v-1h-2v-1h-2v-2h-1v-3h1v-2h2
	v-1h2v-1z" fill="rgb(40,186,35)"/>
<path d="M192 143h1v5h-1v-5z" fill="rgb(120,120,120)"/>
<path d="M74 144h1v2h-1v-2z" fill="rgb(120,120,120)"/>
<path d="M32 145h1v7h-1v-7z" fill="rgb(177,177,177)"/>
<path d="M102 145h4v1h2v2h1v4h-1v2h-2v1h-4v-1h-2v-2h-1v-4h1v-2h2v-1z" fill="rgb(40,186,35)"/>
<path d="M157 145h1v3h-1v-3z" fill="rgb(229,72,0)"/>
<path d="M165 145h2v1h-2v-1z" fill="rgb(59,69,130)"/>
<path d="M16 146h1v6h-1v-6z" fill="rgb(177,177,177)"/>
<path d="M48 146h1v6h-1v-6z" fill="rgb(177,177,177)"/>
<path d="M66 146h2v1h-2v-1z" fill="rgb(120,120,120)"/>
<path d="M71 146h2v1h-2v-1z" fill="rgb(120,120,120)"/>
<path d="M144 146h1v2h-1v-2z" fill="rgb(120,120,120)"/>
<path d="M162 146h1v1h1v1h-2v3h1v1h-1v1h-1v-1h-2v-1h1v-2h1v-2h1v-1z" fill="rgb(59,69,130)"/>
<path d="M164 146h1v1h-1v-1z" fill="rgb(59,69,130)"/>
<path d="M165 146h2v1h1v2h1v3h-2v-1h-2v1h-2v-1h-1v-3h2v-1h1v-1z" fill="rgb(105,79,255)"/>
<path d="M167 146h1v1h-1v-1z" fill="rgb(59,69,130)"/>
<path d="M168 147h1v2h-1v-2z" fill="rgb(59,69,130)"/>
<path d="M156 148h1v3h-1v-3z" fill="rgb(229,72,0)"/>
<path d="M64 149h1v2h-1v-2z" fill="rgb(120,120,120)"/>
<path d="M144 149h1v3h1v1h-1v4h-1v-4h-4v-1h4v-3z" fill="rgb(120,120,120)"/>
<path d="M169 149h1v3h-1v-3z" fill="rgb(59,69,130)"/>
<path d="M172 149h1v1h1v1h1v2h-1v-1h-1v-1h-1v-2z" fill="rgb(153,255,245)"/>
<path d="M176 149h1v3h4v1h-4v3h-1v-3h-1v-1h1v-3z" fill="rgb(120,120,120)"/>
<path d="M155 151h1v2h1v1h1v1h-4v-2h1v-2z" fill="rgb(229,72,0)"/>
<path d="M165 151h2v1h1v3h-1v-1h-1v-1h-1v1h-3v1h-1v-2h1v-1h3v-1z" fill="rgb(121,69,0)"/>
<path d="M172 151h1v1h-1v-1z" fill="rgb(148,202,255)"/>
<path d="M0 152h31v4h-31v-4z" fill="rgb(194,116,0)"/>
<path d="M31 152h1v4h-1v-4z" fill="rgb(121,69,0)"/>
<path d="M32 152h16v8h-16v-8z" fill="rgb(255,168,0)"/>
<path d="M48 152h32v4h-32v-4z" fill="rgb(194,116,0)"/>
<path d="M129 152h5v1h-5v-1z" fill="rgb(177,177,177)"/>
<path d="M148 152h7v1h-7v-1z" fill="rgb(120,120,120)"/>
<path d="M159 152h2v3h-1v2h-3v-1h1v-2h1v-2z" fill="rgb(0,0,0)"/>
<path d="M168 152h1v1h-1v-1z" fill="rgb(59,69,130)"/>
<path d="M172 152h1v1h-1v-1z" fill="rgb(120,120,120)"/>
<path d="M173 152h1v1h-1v-1z" fill="rgb(148,202,255)"/>
<path d="M186 152h3v1h-3v-1z" fill="rgb(120,120,120)"/>
<path d="M199 152h5v1h-5v-1z" fill="rgb(120,120,120)"/>
<path d="M206 152h2v1h-2v-1z" fill="rgb(120,120,120)"/>
<path d="M165 153h1v1h1v1h3v5h-1v-1h-8v-1h-1v1h-1v-2h2v-2h1v-1h3v-1z" fill="rgb(177,177,177)"/>
<path d="M243 153h1v1h1v9h1v-4h1v1h1v6h-1v2h-5v-2h-1v-2h-1v-7h1v-1h1v5h1v-8z" fill="rgb(40,186,35)"/>
<path d="M171 154h1v4h-2v-3h1v-1z" fill="rgb(0,0,0)"/>
<path d="M160 155h1v2h-1v-2z" fill="rgb(120,120,120)"/>
<path d="M250 155h2v13h-3v-11h1v-2z" fill="rgb(40,186,35)"/>
<path d="M0 156h31v12h-31v-12z" fill="rgb(121,69,0)"/>
<path d="M31 156h1v12h-1v-12z" fill="rgb(0,0,0)"/>
<path d="M48 156h32v12h-32v4h-16v-12h16v-4z" fill="rgb(121,69,0)"/>
<path d="M92 156h5v1h1v1h1v3h-1v1h-1v1h-5v-1h-1v-1h-1v-3h1v-1h1v-1z" fill="rgb(40,186,35)"/>
<path d="M157 157h1v1h-1v-1z" fill="rgb(59,69,130)"/>
<path d="M158 157h1v2h-1v2h-1v2h-1v-3h1v-2h1v-1z" fill="rgb(105,79,255)"/>
<path d="M144 158h1v4h1v1h-1v1h-4v-1h-1v-1h1v-1h3v-3z" fill="rgb(120,120,120)"/>
<path d="M156 158h1v2h-1v-2z" fill="rgb(59,69,130)"/>
<path d="M160 158h1v1h8v1h1v3h2v-2h1v1h1v1h-1v1h-1v1h-3v1h-8v2h-1v-2h-2v-1h-3
	v-1h-1v-1h-1v-1h1v-1h1v2h2v-2h1v-2h2v-1z" fill="rgb(120,120,120)"/>
<path d="M170 158h1v5h-1v-5z" fill="rgb(59,69,130)"/>
<path d="M171 158h1v5h-1v-5z" fill="rgb(105,79,255)"/>
<path d="M176 158h1v4h-1v-4z" fill="rgb(120,120,120)"/>
<path d="M192 159h1v4h-1v-4z" fill="rgb(120,120,120)"/>
<path d="M155 160h1v3h-1v-3z" fill="rgb(59,69,130)"/>
<path d="M145 161h1v1h-1v-1z" fill="rgb(234,234,234)"/>
<path d="M253 161h1v1h1v6h-2v-7z" fill="rgb(40,186,35)"/>
<path d="M146 162h3v1h2v2h-1v1h-2v2h-3v-5h1v-1z" fill="rgb(234,234,234)"/>
<path d="M130 164h7v3h-7v-3z" fill="rgb(177,177,177)"/>
<path d="M144 164h1v4h-1v-4z" fill="rgb(177,177,177)"/>
<path d="M176 164h1v4h-1v-4z" fill="rgb(120,120,120)"/>
<path d="M192 166h1v2h-1v-2z" fill="rgb(120,120,120)"/>
<path d="M0 168h32v4h16v-4h32v2h-30v4h-20v-4h-30v-2z" fill="rgb(153,255,245)"/>
<path d="M128 168h31v4h-31v-4z" fill="rgb(194,116,0)"/>
<path d="M159 168h1v4h-1v-4z" fill="rgb(121,69,0)"/>
<path d="M160 168h16v8h-16v-8z" fill="rgb(255,168,0)"/>
<path d="M242 168h5v2h1v6h-1v1h-1v-4h-1v9h-1v1h-1v-8h-1v5h-1v-1h-1v-7h1v-2h1v-2z" fill="rgb(74,135,195)"/>
<path d="M249 168h3v13h-2v-2h-1v-11z" fill="rgb(74,135,195)"/>
<path d="M253 168h2v6h-1v1h-1v-7z" fill="rgb(74,135,195)"/>
<path d="M0 170h30v4h20v-4h30v14h-16v21h-1v-1h-1v1h-1v-1h-1v1h-1v-1h-1v1h-1v-1
	h-1v1h-1v-1h-1v1h-1v-1h-1v1h-1v-1h-1v1h-1v-1h-1v1h-1v-1h-1v1h-1v-1h-1v1h-1v-1
	h-1v1h-1v-1h-1v1h-1v-1h-1v1h-1v-1h-1v1h-1v-1h-1v1h-1v-1h-1v1h-1v-1h-1v1h-1v-1h-1
	v1h-1v-1h-1v1h-1v-1h-1v1h-1v-1h-1v1h-1v-1h-1v1h-1v-1h-1v1h-1v-1h-1v-1h1v-1h-1
	v-1h1v-1h-1v-16h-16v-14z" fill="rgb(74,135,195)"/>
<path d="M128 172h31v12h-31v-12z" fill="rgb(121,69,0)"/>
<path d="M159 172h1v12h-1v-12z" fill="rgb(0,0,0)"/>
<path d="M176 172h36v12h-36v4h-16v-12h16v-4z" fill="rgb(121,69,0)"/>
<path d="M128 184h32v4h16v-4h36v2h-34v4h-20v-4h-30v-2z" fill="rgb(153,255,245)"/>
<path d="M128 186h30v4h20v-4h34v14h-20v21h-1v-1h-1v1h-1v-1h-1v1h-1v-1h-1v1h-1
	v-1h-1v1h-1v-1h-1v1h-1v-1h-1v1h-1v-1h-1v1h-1v-1h-1v1h-1v-1h-1v1h-1v-1h-1v1h-1v-1
	h-1v1h-1v-1h-1v1h-1v-1h-1v1h-1v-1h-1v1h-1v-1h-1v1h-1v-1h-1v1h-1v-1h-1v1h-1v-3
	h-1v1h-1v-1h-1v1h1v1h-1v1h-1v-1h-1v1h-1v-1h-1v-1h1v-1h-2v-2h-1v5h-1v-1h-1v1h-1
	v-1h-1v-1h1v-1h-1v-1h1v-1h-1v-16h-16v-14z" fill="rgb(74,135,195)"/>
<path d="M18 200h1v1h-1v-1z" fill="rgb(92,211,229)"/>
<path d="M20 200h1v1h-1v-1z" fill="rgb(92,211,229)"/>
<path d="M22 200h1v1h-1v-1z" fill="rgb(92,211,229)"/>
<path d="M24 200h1v1h-1v-1z" fill="rgb(92,211,229)"/>
<path d="M26 200h1v1h-1v-1z" fill="rgb(92,211,229)"/>
<path d="M28 200h1v1h-1v-1z" fill="rgb(92,211,229)"/>
<path d="M30 200h1v1h-1v-1z" fill="rgb(92,211,229)"/>
<path d="M32 200h1v1h-1v-1z" fill="rgb(92,211,229)"/>
<path d="M34 200h1v1h-1v-1z" fill="rgb(92,211,229)"/>
<path d="M36 200h1v1h-1v-1z" fill="rgb(92,211,229)"/>
<path d="M38 200h1v1h-1v-1z" fill="rgb(92,211,229)"/>
<path d="M40 200h1v1h-1v-1z" fill="rgb(92,211,229)"/>
<path d="M42 200h1v1h-1v-1z" fill="rgb(92,211,229)"/>
<path d="M44 200h1v1h-1v-1z" fill="rgb(92,211,229)"/>
<path d="M46 200h1v1h-1v-1z" fill="rgb(92,211,229)"/>
<path d="M48 200h1v1h-1v-1z" fill="rgb(92,211,229)"/>
<path d="M50 200h1v1h-1v-1z" fill="rgb(92,211,229)"/>
<path d="M52 200h1v1h-1v-1z" fill="rgb(92,211,229)"/>
<path d="M54 200h1v1h-1v-1z" fill="rgb(92,211,229)"/>
<path d="M56 200h1v1h-1v-1z" fill="rgb(92,211,229)"/>
<path d="M58 200h1v1h-1v-1z" fill="rgb(92,211,229)"/>
<path d="M60 200h1v1h-1v-1z" fill="rgb(92,211,229)"/>
<path d="M62 200h1v1h-1v-1z" fill="rgb(92,211,229)"/>
<path d="M83 201h1v1h1v9h1v-4h1v1h1v6h-1v2h-5v-2h-1v-2h-1v-7h1v-1h1v5h1v-8z" fill="rgb(40,186,35)"/>
<path d="M103 201h2v2h1v13h-3v-15z" fill="rgb(40,186,35)"/>
<path d="M231 201h2v2h1v13h-3v-15z" fill="rgb(40,186,35)"/>
<path d="M18 202h1v1h-1v-1z" fill="rgb(92,211,229)"/>
<path d="M20 202h1v1h-1v-1z" fill="rgb(92,211,229)"/>
<path d="M22 202h1v1h-1v-1z" fill="rgb(92,211,229)"/>
<path d="M24 202h1v1h-1v-1z" fill="rgb(92,211,229)"/>
<path d="M26 202h1v1h-1v-1z" fill="rgb(92,211,229)"/>
<path d="M28 202h1v1h-1v-1z" fill="rgb(92,211,229)"/>
<path d="M30 202h1v1h-1v-1z" fill="rgb(92,211,229)"/>
<path d="M32 202h1v1h-1v-1z" fill="rgb(92,211,229)"/>
<path d="M34 202h1v1h-1v-1z" fill="rgb(92,211,229)"/>
<path d="M36 202h1v1h-1v-1z" fill="rgb(92,211,229)"/>
<path d="M38 202h1v1h-1v-1z" fill="rgb(92,211,229)"/>
<path d="M40 202h1v1h-1v-1z" fill="rgb(92,211,229)"/>
<path d="M42 202h1v1h-1v-1z" fill="rgb(92,211,229)"/>
<path d="M44 202h1v1h-1v-1z" fill="rgb(92,211,229)"/>
<path d="M46 202h1v1h-1v-1z" fill="rgb(92,211,229)"/>
<path d="M48 202h1v1h-1v-1z" fill="rgb(92,211,229)"/>
<path d="M50 202h1v1h-1v-1z" fill="rgb(92,211,229)"/>
<path d="M52 202h1v1h-1v-1z" fill="rgb(92,211,229)"/>
<path d="M54 202h1v1h-1v-1z" fill="rgb(92,211,229)"/>
<path d="M56 202h1v1h-1v-1z" fill="rgb(92,211,229)"/>
<path d="M58 202h1v1h-1v-1z" fill="rgb(92,211,229)"/>
<path d="M60 202h1v1h-1v-1z" fill="rgb(92,211,229)"/>
<path d="M62 202h1v1h-1v-1z" fill="rgb(92,211,229)"/>
<path d="M90 203h2v13h-3v-11h1v-2z" fill="rgb(40,186,35)"/>
<path d="M18 204h1v1h-1v-1z" fill="rgb(92,211,229)"/>
<path d="M20 204h1v1h-1v-1z" fill="rgb(92,211,229)"/>
<path d="M22 204h1v1h-1v-1z" fill="rgb(92,211,229)"/>
<path d="M24 204h1v1h-1v-1z" fill="rgb(92,211,229)"/>
<path d="M26 204h1v1h-1v-1z" fill="rgb(92,211,229)"/>
<path d="M28 204h1v1h-1v-1z" fill="rgb(92,211,229)"/>
<path d="M30 204h1v1h-1v-1z" fill="rgb(92,211,229)"/>
<path d="M32 204h1v1h-1v-1z" fill="rgb(92,211,229)"/>
<path d="M34 204h1v1h-1v-1z" fill="rgb(92,211,229)"/>
<path d="M36 204h1v1h-1v-1z" fill="rgb(92,211,229)"/>
<path d="M38 204h1v1h-1v-1z" fill="rgb(92,211,229)"/>
<path d="M40 204h1v1h-1v-1z" fill="rgb(92,211,229)"/>
<path d="M42 204h1v1h-1v-1z" fill="rgb(92,211,229)"/>
<path d="M44 204h1v1h-1v-1z" fill="rgb(92,211,229)"/>
<path d="M46 204h1v1h-1v-1z" fill="rgb(92,211,229)"/>
<path d="M48 204h1v1h-1v-1z" fill="rgb(92,211,229)"/>
<path d="M50 204h1v1h-1v-1z" fill="rgb(92,211,229)"/>
<path d="M52 204h1v1h-1v-1z" fill="rgb(92,211,229)"/>
<path d="M54 204h1v1h-1v-1z" fill="rgb(92,211,229)"/>
<path d="M56 204h1v1h-1v-1z" fill="rgb(92,211,229)"/>
<path d="M58 204h1v1h-1v-1z" fill="rgb(92,211,229)"/>
<path d="M60 204h1v1h-1v-1z" fill="rgb(92,211,229)"/>
<path d="M62 204h1v1h-1v-1z" fill="rgb(92,211,229)"/>
<path d="M111 204h1v12h-2v-11h1v-1z" fill="rgb(40,186,35)"/>
<path d="M239 204h1v12h-2v-11h1v-1z" fill="rgb(40,186,35)"/>
<path d="M16 205h1v1h-1v-1z" fill="rgb(74,135,195)"/>
<path d="M17 205h1v1h-1v-1z" fill="rgb(92,211,229)"/>
<path d="M18 205h1v1h-1v-1z" fill="rgb(74,135,195)"/>
<path d="M19 205h1v1h-1v-1z" fill="rgb(92,211,229)"/>
<path d="M20 205h1v1h-1v-1z" fill="rgb(74,135,195)"/>
<path d="M21 205h1v1h-1v-1z" fill="rgb(92,211,229)"/>
<path d="M22 205h1v1h-1v-1z" fill="rgb(74,135,195)"/>
<path d="M23 205h1v1h-1v-1z" fill="rgb(92,211,229)"/>
<path d="M24 205h1v1h-1v-1z" fill="rgb(74,135,195)"/>
<path d="M25 205h1v1h-1v-1z" fill="rgb(92,211,229)"/>
<path d="M26 205h1v1h-1v-1z" fill="rgb(74,135,195)"/>
<path d="M27 205h1v1h-1v-1z" fill="rgb(92,211,229)"/>
<path d="M28 205h1v1h-1v-1z" fill="rgb(74,135,195)"/>
<path d="M29 205h1v1h-1v-1z" fill="rgb(92,211,229)"/>
<path d="M30 205h1v1h-1v-1z" fill="rgb(74,135,195)"/>
<path d="M31 205h1v1h-1v-1z" fill="rgb(92,211,229)"/>
<path d="M32 205h1v1h-1v-1z" fill="rgb(74,135,195)"/>
<path d="M33 205h1v1h-1v-1z" fill="rgb(92,211,229)"/>
<path d="M34 205h1v1h-1v-1z" fill="rgb(74,135,195)"/>
<path d="M35 205h1v1h-1v-1z" fill="rgb(92,211,229)"/>
<path d="M36 205h1v1h-1v-1z" fill="rgb(74,135,195)"/>
<path d="M37 205h1v1h-1v-1z" fill="rgb(92,211,229)"/>
<path d="M38 205h1v1h-1v-1z" fill="rgb(74,135,195)"/>
<path d="M39 205h1v1h-1v-1z" fill="rgb(92,211,229)"/>
<path d="M40 205h1v1h-1v-1z" fill="rgb(74,135,195)"/>
<path d="M41 205h1v1h-1v-1z" fill="rgb(92,211,229)"/>
<path d="M42 205h1v1h-1v-1z" fill="rgb(74,135,195)"/>
<path d="M43 205h1v1h-1v-1z" fill="rgb(92,211,229)"/>
<path d="M44 205h1v1h-1v-1z" fill="rgb(74,135,195)"/>
<path d="M45 205h1v1h-1v-1z" fill="rgb(92,211,229)"/>
<path d="M46 205h1v1h-1v-1z" fill="rgb(74,135,195)"/>
<path d="M47 205h1v1h-1v-1z" fill="rgb(92,211,229)"/>
<path d="M48 205h1v1h-1v-1z" fill="rgb(74,135,195)"/>
<path d="M49 205h1v1h-1v-1z" fill="rgb(92,211,229)"/>
<path d="M50 205h1v1h-1v-1z" fill="rgb(74,135,195)"/>
<path d="M51 205h1v1h-1v-1z" fill="rgb(92,211,229)"/>
<path d="M52 205h1v1h-1v-1z" fill="rgb(74,135,195)"/>
<path d="M53 205h1v1h-1v-1z" fill="rgb(92,211,229)"/>
<path d="M54 205h1v1h-1v-1z" fill="rgb(74,135,195)"/>
<path d="M55 205h1v1h-1v-1z" fill="rgb(92,211,229)"/>
<path d="M56 205h1v1h-1v-1z" fill="rgb(74,135,195)"/>
<path d="M57 205h1v1h-1v-1z" fill="rgb(92,211,229)"/>
<path d="M58 205h1v1h-1v-1z" fill="rgb(74,135,195)"/>
<path d="M59 205h1v1h-1v-1z" fill="rgb(92,211,229)"/>
<path d="M60 205h1v1h-1v-1z" fill="rgb(74,135,195)"/>
<path d="M61 205h1v1h-1v-1z" fill="rgb(92,211,229)"/>
<path d="M62 205h1v1h-1v-1z" fill="rgb(74,135,195)"/>
<path d="M97 205h1v7h1v-4h1v1h1v2h1v4h-1v1h-5v-10h1v-1z" fill="rgb(40,186,35)"/>
<path d="M225 205h1v7h1v-4h1v1h1v2h1v4h-1v1h-5v-10h1v-1z" fill="rgb(40,186,35)"/>
<path d="M17 206h1v1h-1v-1z" fill="rgb(74,135,195)"/>
<path d="M18 206h1v1h-1v-1z" fill="rgb(92,211,229)"/>
<path d="M19 206h1v1h-1v-1z" fill="rgb(74,135,195)"/>
<path d="M20 206h1v1h-1v-1z" fill="rgb(92,211,229)"/>
<path d="M21 206h1v1h-1v-1z" fill="rgb(74,135,195)"/>
<path d="M22 206h1v1h-1v-1z" fill="rgb(92,211,229)"/>
<path d="M23 206h1v1h-1v-1z" fill="rgb(74,135,195)"/>
<path d="M24 206h1v1h-1v-1z" fill="rgb(92,211,229)"/>
<path d="M25 206h1v1h-1v-1z" fill="rgb(74,135,195)"/>
<path d="M26 206h1v1h-1v-1z" fill="rgb(92,211,229)"/>
<path d="M27 206h1v1h-1v-1z" fill="rgb(74,135,195)"/>
<path d="M28 206h1v1h-1v-1z" fill="rgb(92,211,229)"/>
<path d="M29 206h1v1h-1v-1z" fill="rgb(74,135,195)"/>
<path d="M30 206h1v1h-1v-1z" fill="rgb(92,211,229)"/>
<path d="M31 206h1v1h-1v-1z" fill="rgb(74,135,195)"/>
<path d="M32 206h1v1h-1v-1z" fill="rgb(92,211,229)"/>
<path d="M33 206h1v1h-1v-1z" fill="rgb(74,135,195)"/>
<path d="M34 206h1v1h-1v-1z" fill="rgb(92,211,229)"/>
<path d="M35 206h1v1h-1v-1z" fill="rgb(74,135,195)"/>
<path d="M36 206h1v1h-1v-1z" fill="rgb(92,211,229)"/>
<path d="M37 206h1v1h-1v-1z" fill="rgb(74,135,195)"/>
<path d="M38 206h1v1h-1v-1z" fill="rgb(92,211,229)"/>
<path d="M39 206h1v1h-1v-1z" fill="rgb(74,135,195)"/>
<path d="M40 206h1v1h-1v-1z" fill="rgb(92,211,229)"/>
<path d="M41 206h1v1h-1v-1z" fill="rgb(74,135,195)"/>
<path d="M42 206h1v1h-1v-1z" fill="rgb(92,211,229)"/>
<path d="M43 206h1v1h-1v-1z" fill="rgb(74,135,195)"/>
<path d="M44 206h1v1h-1v-1z" fill="rgb(92,211,229)"/>
<path d="M45 206h1v1h-1v-1z" fill="rgb(74,135,195)"/>
<path d="M46 206h1v1h-1v-1z" fill="rgb(92,211,229)"/>
<path d="M47 206h1v1h-1v-1z" fill="rgb(74,135,195)"/>
<path d="M48 206h1v1h-1v-1z" fill="rgb(92,211,229)"/>
<path d="M49 206h1v1h-1v-1z" fill="rgb(74,135,195)"/>
<path d="M50 206h1v1h-1v-1z" fill="rgb(92,211,229)"/>
<path d="M51 206h1v1h-1v-1z" fill="rgb(74,135,195)"/>
<path d="M52 206h1v1h-1v-1z" fill="rgb(92,211,229)"/>
<path d="M53 206h1v1h-1v-1z" fill="rgb(74,135,195)"/>
<path d="M54 206h1v1h-1v-1z" fill="rgb(92,211,229)"/>
<path d="M55 206h1v1h-1v-1z" fill="rgb(74,135,195)"/>
<path d="M56 206h1v1h-1v-1z" fill="rgb(92,211,229)"/>
<path d="M57 206h1v1h-1v-1z" fill="rgb(74,135,195)"/>
<path d="M58 206h1v1h-1v-1z" fill="rgb(92,211,229)"/>
<path d="M59 206h1v1h-1v-1z" fill="rgb(74,135,195)"/>
<path d="M60 206h1v1h-1v-1z" fill="rgb(92,211,229)"/>
<path d="M61 206h1v1h-1v-1z" fill="rgb(74,135,195)"/>
<path d="M62 206h1v1h-1v-1z" fill="rgb(92,211,229)"/>
<path d="M63 206h1v1h-1v-1z" fill="rgb(74,135,195)"/>
<path d="M16 207h1v1h-1v-1z" fill="rgb(74,135,195)"/>
<path d="M18 207h1v1h-1v-1z" fill="rgb(74,135,195)"/>
<path d="M19 207h1v1h-1v-1z" fill="rgb(92,211,229)"/>
<path d="M20 207h1v1h-1v-1z" fill="rgb(74,135,195)"/>
<path d="M21 207h1v1h1v1h-1v1h-1v-1h-1v-1h1v-1z" fill="rgb(92,211,229)"/>
<path d="M22 207h1v1h-1v-1z" fill="rgb(74,135,195)"/>
<path d="M23 207h1v1h-1v-1z" fill="rgb(92,211,229)"/>
<path d="M24 207h1v1h-1v-1z" fill="rgb(74,135,195)"/>
<path d="M25 207h1v1h1v1h-1v1h-1v-1h-1v-1h1v-1z" fill="rgb(92,211,229)"/>
<path d="M26 207h1v1h-1v-1z" fill="rgb(74,135,195)"/>
<path d="M27 207h1v1h-1v-1z" fill="rgb(92,211,229)"/>
<path d="M28 207h1v1h-1v-1z" fill="rgb(74,135,195)"/>
<path d="M29 207h1v1h1v1h-1v1h-1v-1h-1v-1h1v-1z" fill="rgb(92,211,229)"/>
<path d="M30 207h1v1h-1v-1z" fill="rgb(74,135,195)"/>
<path d="M31 207h1v1h-1v-1z" fill="rgb(92,211,229)"/>
<path d="M32 207h1v1h-1v-1z" fill="rgb(74,135,195)"/>
<path d="M33 207h1v1h1v1h-1v1h-1v-1h-1v-1h1v-1z" fill="rgb(92,211,229)"/>
<path d="M34 207h1v1h-1v-1z" fill="rgb(74,135,195)"/>
<path d="M35 207h1v1h-1v-1z" fill="rgb(92,211,229)"/>
<path d="M36 207h1v1h-1v-1z" fill="rgb(74,135,195)"/>
<path d="M37 207h1v1h1v1h-1v1h-1v-1h-1v-1h1v-1z" fill="rgb(92,211,229)"/>
<path d="M38 207h1v1h-1v-1z" fill="rgb(74,135,195)"/>
<path d="M39 207h1v1h-1v-1z" fill="rgb(92,211,229)"/>
<path d="M40 207h1v1h-1v-1z" fill="rgb(74,135,195)"/>
<path d="M41 207h1v1h1v1h-1v1h-1v-1h-1v-1h1v-1z" fill="rgb(92,211,229)"/>
<path d="M42 207h1v1h-1v-1z" fill="rgb(74,135,195)"/>
<path d="M43 207h1v1h-1v-1z" fill="rgb(92,211,229)"/>
<path d="M44 207h1v1h-1v-1z" fill="rgb(74,135,195)"/>
<path d="M45 207h1v1h1v1h-1v1h-1v-1h-1v-1h1v-1z" fill="rgb(92,211,229)"/>
<path d="M46 207h1v1h-1v-1z" fill="rgb(74,135,195)"/>
<path d="M47 207h1v1h-1v-1z" fill="rgb(92,211,229)"/>
<path d="M48 207h1v1h-1v-1z" fill="rgb(74,135,195)"/>
<path d="M49 207h1v1h1v1h-1v1h-1v-1h-1v-1h1v-1z" fill="rgb(92,211,229)"/>
<path d="M50 207h1v1h-1v-1z" fill="rgb(74,135,195)"/>
<path d="M51 207h1v1h-1v-1z" fill="rgb(92,211,229)"/>
<path d="M52 207h1v1h-1v-1z" fill="rgb(74,135,195)"/>
<path d="M53 207h1v1h1v1h-1v1h-1v-1h-1v-1h1v-1z" fill="rgb(92,211,229)"/>
<path d="M54 207h1v1h-1v-1z" fill="rgb(74,135,195)"/>
<path d="M55 207h1v1h-1v-1z" fill="rgb(92,211,229)"/>
<path d="M56 207h1v1h-1v-1z" fill="rgb(74,135,195)"/>
<path d="M57 207h1v1h1v1h-1v1h-1v-1h-1v-1h1v-1z" fill="rgb(92,211,229)"/>
<path d="M58 207h1v1h-1v-1z" fill="rgb(74,135,195)"/>
<path d="M59 207h1v1h-1v-1z" fill="rgb(92,211,229)"/>
<path d="M60 207h1v1h-1v-1z" fill="rgb(74,135,195)"/>
<path d="M61 207h1v1h1v1h-1v1h-1v-1h-1v-1h1v-1z" fill="rgb(92,211,229)"/>
<path d="M62 207h1v1h-1v-1z" fill="rgb(74,135,195)"/>
<path d="M19 208h1v1h-1v-1z" fill="rgb(74,135,195)"/>
<path d="M23 208h1v1h-1v-1z" fill="rgb(74,135,195)"/>
<path d="M27 208h1v1h-1v-1z" fill="rgb(74,135,195)"/>
<path d="M31 208h1v1h-1v-1z" fill="rgb(74,135,195)"/>
<path d="M35 208h1v1h-1v-1z" fill="rgb(74,135,195)"/>
<path d="M39 208h1v1h-1v-1z" fill="rgb(74,135,195)"/>
<path d="M43 208h1v1h-1v-1z" fill="rgb(74,135,195)"/>
<path d="M47 208h1v1h-1v-1z" fill="rgb(74,135,195)"/>
<path d="M51 208h1v1h-1v-1z" fill="rgb(74,135,195)"/>
<path d="M55 208h1v1h-1v-1z" fill="rgb(74,135,195)"/>
<path d="M59 208h1v1h-1v-1z" fill="rgb(74,135,195)"/>
<path d="M63 208h1v1h-1v-1z" fill="rgb(74,135,195)"/>
<path d="M16 209h1v1h-1v-1z" fill="rgb(74,135,195)"/>
<path d="M18 209h1v1h-1v-1z" fill="rgb(74,135,195)"/>
<path d="M20 209h1v1h-1v-1z" fill="rgb(74,135,195)"/>
<path d="M22 209h1v1h-1v-1z" fill="rgb(74,135,195)"/>
<path d="M24 209h1v1h-1v-1z" fill="rgb(74,135,195)"/>
<path d="M26 209h1v1h-1v-1z" fill="rgb(74,135,195)"/>
<path d="M28 209h1v1h-1v-1z" fill="rgb(74,135,195)"/>
<path d="M30 209h1v1h-1v-1z" fill="rgb(74,135,195)"/>
<path d="M32 209h1v1h-1v-1z" fill="rgb(74,135,195)"/>
<path d="M34 209h1v1h-1v-1z" fill="rgb(74,135,195)"/>
<path d="M36 209h1v1h-1v-1z" fill="rgb(74,135,195)"/>
<path d="M38 209h1v1h-1v-1z" fill="rgb(74,135,195)"/>
<path d="M40 209h1v1h-1v-1z" fill="rgb(74,135,195)"/>
<path d="M42 209h1v1h-1v-1z" fill="rgb(74,135,195)"/>
<path d="M44 209h1v1h-1v-1z" fill="rgb(74,135,195)"/>
<path d="M46 209h1v1h-1v-1z" fill="rgb(74,135,195)"/>
<path d="M48 209h1v1h-1v-1z" fill="rgb(74,135,195)"/>
<path d="M50 209h1v1h-1v-1z" fill="rgb(74,135,195)"/>
<path d="M52 209h1v1h-1v-1z" fill="rgb(74,135,195)"/>
<path d="M54 209h1v1h-1v-1z" fill="rgb(74,135,195)"/>
<path d="M56 209h1v1h-1v-1z" fill="rgb(74,135,195)"/>
<path d="M58 209h1v1h-1v-1z" fill="rgb(74,135,195)"/>
<path d="M60 209h1v1h-1v-1z" fill="rgb(74,135,195)"/>
<path d="M62 209h1v1h-1v-1z" fill="rgb(74,135,195)"/>
<path d="M93 209h1v1h1v6h-2v-7z" fill="rgb(40,186,35)"/>
<path d="M17 210h1v1h-1v-1z" fill="rgb(74,135,195)"/>
<path d="M21 210h1v1h-1v-1z" fill="rgb(74,135,195)"/>
<path d="M25 210h1v1h-1v-1z" fill="rgb(74,135,195)"/>
<path d="M29 210h1v1h-1v-1z" fill="rgb(74,135,195)"/>
<path d="M33 210h1v1h-1v-1z" fill="rgb(74,135,195)"/>
<path d="M37 210h1v1h-1v-1z" fill="rgb(74,135,195)"/>
<path d="M41 210h1v1h-1v-1z" fill="rgb(74,135,195)"/>
<path d="M45 210h1v1h-1v-1z" fill="rgb(74,135,195)"/>
<path d="M49 210h1v1h-1v-1z" fill="rgb(74,135,195)"/>
<path d="M53 210h1v1h-1v-1z" fill="rgb(74,135,195)"/>
<path d="M57 210h1v1h-1v-1z" fill="rgb(74,135,195)"/>
<path d="M61 210h1v1h-1v-1z" fill="rgb(74,135,195)"/>
<path d="M107 210h1v1h1v5h-2v-6z" fill="rgb(40,186,35)"/>
<path d="M235 210h1v1h1v5h-2v-6z" fill="rgb(40,186,35)"/>
<path d="M16 211h1v1h-1v-1z" fill="rgb(74,135,195)"/>
<path d="M18 211h1v1h-1v-1z" fill="rgb(74,135,195)"/>
<path d="M20 211h1v1h-1v-1z" fill="rgb(74,135,195)"/>
<path d="M22 211h1v1h-1v-1z" fill="rgb(74,135,195)"/>
<path d="M24 211h1v1h-1v-1z" fill="rgb(74,135,195)"/>
<path d="M26 211h1v1h-1v-1z" fill="rgb(74,135,195)"/>
<path d="M28 211h1v1h-1v-1z" fill="rgb(74,135,195)"/>
<path d="M30 211h1v1h-1v-1z" fill="rgb(74,135,195)"/>
<path d="M32 211h1v1h-1v-1z" fill="rgb(74,135,195)"/>
<path d="M34 211h1v1h-1v-1z" fill="rgb(74,135,195)"/>
<path d="M36 211h1v1h-1v-1z" fill="rgb(74,135,195)"/>
<path d="M38 211h1v1h-1v-1z" fill="rgb(74,135,195)"/>
<path d="M40 211h1v1h-1v-1z" fill="rgb(74,135,195)"/>
<path d="M42 211h1v1h-1v-1z" fill="rgb(74,135,195)"/>
<path d="M44 211h1v1h-1v-1z" fill="rgb(74,135,195)"/>
<path d="M46 211h1v1h-1v-1z" fill="rgb(74,135,195)"/>
<path d="M48 211h1v1h-1v-1z" fill="rgb(74,135,195)"/>
<path d="M50 211h1v1h-1v-1z" fill="rgb(74,135,195)"/>
<path d="M52 211h1v1h-1v-1z" fill="rgb(74,135,195)"/>
<path d="M54 211h1v1h-1v-1z" fill="rgb(74,135,195)"/>
<path d="M56 211h1v1h-1v-1z" fill="rgb(74,135,195)"/>
<path d="M58 211h1v1h-1v-1z" fill="rgb(74,135,195)"/>
<path d="M60 211h1v1h-1v-1z" fill="rgb(74,135,195)"/>
<path d="M62 211h1v1h-1v-1z" fill="rgb(74,135,195)"/>
<path d="M18 213h1v1h-1v-1z" fill="rgb(74,135,195)"/>
<path d="M22 213h1v1h-1v-1z" fill="rgb(74,135,195)"/>
<path d="M26 213h1v1h-1v-1z" fill="rgb(74,135,195)"/>
<path d="M30 213h1v1h-1v-1z" fill="rgb(74,135,195)"/>
<path d="M34 213h1v1h-1v-1z" fill="rgb(74,135,195)"/>
<path d="M38 213h1v1h-1v-1z" fill="rgb(74,135,195)"/>
<path d="M42 213h1v1h-1v-1z" fill="rgb(74,135,195)"/>
<path d="M46 213h1v1h-1v-1z" fill="rgb(74,135,195)"/>
<path d="M50 213h1v1h-1v-1z" fill="rgb(74,135,195)"/>
<path d="M54 213h1v1h-1v-1z" fill="rgb(74,135,195)"/>
<path d="M58 213h1v1h-1v-1z" fill="rgb(74,135,195)"/>
<path d="M62 213h1v1h-1v-1z" fill="rgb(74,135,195)"/>
<path d="M16 215h1v1h-1v-1z" fill="rgb(74,135,195)"/>
<path d="M20 215h1v1h-1v-1z" fill="rgb(74,135,195)"/>
<path d="M24 215h1v1h-1v-1z" fill="rgb(74,135,195)"/>
<path d="M28 215h1v1h-1v-1z" fill="rgb(74,135,195)"/>
<path d="M32 215h1v1h-1v-1z" fill="rgb(74,135,195)"/>
<path d="M36 215h1v1h-1v-1z" fill="rgb(74,135,195)"/>
<path d="M40 215h1v1h-1v-1z" fill="rgb(74,135,195)"/>
<path d="M44 215h1v1h-1v-1z" fill="rgb(74,135,195)"/>
<path d="M48 215h1v1h-1v-1z" fill="rgb(74,135,195)"/>
<path d="M52 215h1v1h-1v-1z" fill="rgb(74,135,195)"/>
<path d="M56 215h1v1h-1v-1z" fill="rgb(74,135,195)"/>
<path d="M60 215h1v1h-1v-1z" fill="rgb(74,135,195)"/>
<path d="M82 216h5v2h1v6h-1v1h-1v-4h-1v9h-1v1h-1v-8h-1v5h-1v-1h-1v-7h1v-2h1v-2z" fill="rgb(74,135,195)"/>
<path d="M89 216h3v13h-2v-2h-1v-11z" fill="rgb(74,135,195)"/>
<path d="M93 216h2v6h-1v1h-1v-7z" fill="rgb(74,135,195)"/>
<path d="M96 216h5v1h1v4h-1v2h-1v1h-1v-4h-1v7h-1v-1h-1v-10z" fill="rgb(74,135,195)"/>
<path d="M103 216h3v13h-1v2h-2v-15z" fill="rgb(74,135,195)"/>
<path d="M107 216h2v5h-1v1h-1v-6z" fill="rgb(74,135,195)"/>
<path d="M110 216h2v12h-1v-1h-1v-11z" fill="rgb(74,135,195)"/>
<path d="M135 216h2v2h1v14h-3v-16z" fill="rgb(40,186,35)"/>
<path d="M146 216h1v1h-1v-1z" fill="rgb(92,211,229)"/>
<path d="M148 216h1v1h-1v-1z" fill="rgb(92,211,229)"/>
<path d="M150 216h1v1h-1v-1z" fill="rgb(92,211,229)"/>
<path d="M152 216h1v1h-1v-1z" fill="rgb(92,211,229)"/>
<path d="M154 216h1v1h-1v-1z" fill="rgb(92,211,229)"/>
<path d="M156 216h1v1h-1v-1z" fill="rgb(92,211,229)"/>
<path d="M158 216h1v1h-1v-1z" fill="rgb(92,211,229)"/>
<path d="M160 216h1v1h-1v-1z" fill="rgb(92,211,229)"/>
<path d="M162 216h1v1h-1v-1z" fill="rgb(92,211,229)"/>
<path d="M164 216h1v1h-1v-1z" fill="rgb(92,211,229)"/>
<path d="M166 216h1v1h-1v-1z" fill="rgb(92,211,229)"/>
<path d="M168 216h1v1h-1v-1z" fill="rgb(92,211,229)"/>
<path d="M170 216h1v1h-1v-1z" fill="rgb(92,211,229)"/>
<path d="M172 216h1v1h-1v-1z" fill="rgb(92,211,229)"/>
<path d="M174 216h1v1h-1v-1z" fill="rgb(92,211,229)"/>
<path d="M176 216h1v1h-1v-1z" fill="rgb(92,211,229)"/>
<path d="M178 216h1v1h-1v-1z" fill="rgb(92,211,229)"/>
<path d="M180 216h1v1h-1v-1z" fill="rgb(92,211,229)"/>
<path d="M182 216h1v1h-1v-1z" fill="rgb(92,211,229)"/>
<path d="M184 216h1v1h-1v-1z" fill="rgb(92,211,229)"/>
<path d="M186 216h1v1h-1v-1z" fill="rgb(92,211,229)"/>
<path d="M188 216h1v1h-1v-1z" fill="rgb(92,211,229)"/>
<path d="M190 216h1v1h-1v-1z" fill="rgb(92,211,229)"/>
<path d="M224 216h5v1h1v4h-1v2h-1v1h-1v-4h-1v7h-1v-1h-1v-10z" fill="rgb(74,135,195)"/>
<path d="M231 216h3v13h-1v2h-2v-15z" fill="rgb(74,135,195)"/>
<path d="M235 216h2v5h-1v1h-1v-6z" fill="rgb(74,135,195)"/>
<path d="M238 216h2v12h-1v-1h-1v-11z" fill="rgb(74,135,195)"/>
<path d="M148 217h1v1h1v9h1v-4h1v1h1v6h-1v2h-5v-2h-1v-2h-1v-7h1v-1h1v5h1v-8z" fill="rgb(40,186,35)"/>
<path d="M146 218h1v1h-1v-1z" fill="rgb(92,211,229)"/>
<path d="M150 218h1v1h-1v-1z" fill="rgb(92,211,229)"/>
<path d="M152 218h1v1h-1v-1z" fill="rgb(92,211,229)"/>
<path d="M154 218h1v1h-1v-1z" fill="rgb(92,211,229)"/>
<path d="M156 218h1v1h-1v-1z" fill="rgb(92,211,229)"/>
<path d="M158 218h1v1h-1v-1z" fill="rgb(92,211,229)"/>
<path d="M160 218h1v1h-1v-1z" fill="rgb(92,211,229)"/>
<path d="M162 218h1v1h-1v-1z" fill="rgb(92,211,229)"/>
<path d="M164 218h1v1h-1v-1z" fill="rgb(92,211,229)"/>
<path d="M166 218h1v1h-1v-1z" fill="rgb(92,211,229)"/>
<path d="M168 218h1v1h-1v-1z" fill="rgb(92,211,229)"/>
<path d="M170 218h1v1h-1v-1z" fill="rgb(92,211,229)"/>
<path d="M172 218h1v1h-1v-1z" fill="rgb(92,211,229)"/>
<path d="M174 218h1v1h-1v-1z" fill="rgb(92,211,229)"/>
<path d="M176 218h1v1h-1v-1z" fill="rgb(92,211,229)"/>
<path d="M178 218h1v1h-1v-1z" fill="rgb(92,211,229)"/>
<path d="M180 218h1v1h-1v-1z" fill="rgb(92,211,229)"/>
<path d="M182 218h1v1h-1v-1z" fill="rgb(92,211,229)"/>
<path d="M184 218h1v1h-1v-1z" fill="rgb(92,211,229)"/>
<path d="M186 218h1v1h-1v-1z" fill="rgb(92,211,229)"/>
<path d="M188 218h1v1h-1v-1z" fill="rgb(92,211,229)"/>
<path d="M190 218h1v1h-1v-1z" fill="rgb(92,211,229)"/>
<path d="M12 219h5v1h1v1h1v3h-1v1h-1v1h-5v-1h-1v-1h-1v-3h1v-1h1v-1z" fill="rgb(40,186,35)"/>
<path d="M155 219h2v13h-3v-11h1v-2z" fill="rgb(40,186,35)"/>
<path d="M143 220h1v12h-2v-11h1v-1z" fill="rgb(40,186,35)"/>
<path d="M144 220h1v1h-1v-1z" fill="rgb(92,211,229)"/>
<path d="M150 220h1v1h-1v-1z" fill="rgb(92,211,229)"/>
<path d="M152 220h1v1h-1v-1z" fill="rgb(92,211,229)"/>
<path d="M154 220h1v1h-1v-1z" fill="rgb(92,211,229)"/>
<path d="M158 220h1v1h-1v-1z" fill="rgb(92,211,229)"/>
<path d="M160 220h1v1h-1v-1z" fill="rgb(92,211,229)"/>
<path d="M162 220h1v1h-1v-1z" fill="rgb(92,211,229)"/>
<path d="M164 220h1v1h-1v-1z" fill="rgb(92,211,229)"/>
<path d="M166 220h1v1h-1v-1z" fill="rgb(92,211,229)"/>
<path d="M168 220h1v1h-1v-1z" fill="rgb(92,211,229)"/>
<path d="M170 220h1v1h-1v-1z" fill="rgb(92,211,229)"/>
<path d="M172 220h1v1h-1v-1z" fill="rgb(92,211,229)"/>
<path d="M174 220h1v1h-1v-1z" fill="rgb(92,211,229)"/>
<path d="M176 220h1v1h-1v-1z" fill="rgb(92,211,229)"/>
<path d="M178 220h1v1h-1v-1z" fill="rgb(92,211,229)"/>
<path d="M180 220h1v1h-1v-1z" fill="rgb(92,211,229)"/>
<path d="M182 220h1v1h-1v-1z" fill="rgb(92,211,229)"/>
<path d="M184 220h1v1h-1v-1z" fill="rgb(92,211,229)"/>
<path d="M186 220h1v1h-1v-1z" fill="rgb(92,211,229)"/>
<path d="M188 220h1v1h-1v-1z" fill="rgb(92,211,229)"/>
<path d="M190 220h1v1h-1v-1z" fill="rgb(92,211,229)"/>
<path d="M129 221h1v7h1v-4h1v1h1v2h1v4h-1v1h-5v-10h1v-1z" fill="rgb(40,186,35)"/>
<path d="M144 221h1v1h-1v-1z" fill="rgb(74,135,195)"/>
<path d="M147 221h1v1h-1v-1z" fill="rgb(92,211,229)"/>
<path d="M150 221h1v1h-1v-1z" fill="rgb(74,135,195)"/>
<path d="M151 221h1v1h-1v-1z" fill="rgb(92,211,229)"/>
<path d="M152 221h1v1h-1v-1z" fill="rgb(74,135,195)"/>
<path d="M153 221h1v1h-1v-1z" fill="rgb(92,211,229)"/>
<path d="M157 221h1v1h-1v-1z" fill="rgb(92,211,229)"/>
<path d="M158 221h1v1h-1v-1z" fill="rgb(74,135,195)"/>
<path d="M159 221h1v1h-1v-1z" fill="rgb(92,211,229)"/>
<path d="M160 221h1v1h-1v-1z" fill="rgb(74,135,195)"/>
<path d="M161 221h1v1h-1v-1z" fill="rgb(92,211,229)"/>
<path d="M162 221h1v1h-1v-1z" fill="rgb(74,135,195)"/>
<path d="M163 221h1v1h-1v-1z" fill="rgb(92,211,229)"/>
<path d="M164 221h1v1h-1v-1z" fill="rgb(74,135,195)"/>
<path d="M165 221h1v1h-1v-1z" fill="rgb(92,211,229)"/>
<path d="M166 221h1v1h-1v-1z" fill="rgb(74,135,195)"/>
<path d="M167 221h1v1h-1v-1z" fill="rgb(92,211,229)"/>
<path d="M168 221h1v1h-1v-1z" fill="rgb(74,135,195)"/>
<path d="M169 221h1v1h-1v-1z" fill="rgb(92,211,229)"/>
<path d="M170 221h1v1h-1v-1z" fill="rgb(74,135,195)"/>
<path d="M171 221h1v1h-1v-1z" fill="rgb(92,211,229)"/>
<path d="M172 221h1v1h-1v-1z" fill="rgb(74,135,195)"/>
<path d="M173 221h1v1h-1v-1z" fill="rgb(92,211,229)"/>
<path d="M174 221h1v1h-1v-1z" fill="rgb(74,135,195)"/>
<path d="M175 221h1v1h-1v-1z" fill="rgb(92,211,229)"/>
<path d="M176 221h1v1h-1v-1z" fill="rgb(74,135,195)"/>
<path d="M177 221h1v1h-1v-1z" fill="rgb(92,211,229)"/>
<path d="M178 221h1v1h-1v-1z" fill="rgb(74,135,195)"/>
<path d="M179 221h1v1h-1v-1z" fill="rgb(92,211,229)"/>
<path d="M180 221h1v1h-1v-1z" fill="rgb(74,135,195)"/>
<path d="M181 221h1v1h-1v-1z" fill="rgb(92,211,229)"/>
<path d="M182 221h1v1h-1v-1z" fill="rgb(74,135,195)"/>
<path d="M183 221h1v1h-1v-1z" fill="rgb(92,211,229)"/>
<path d="M184 221h1v1h-1v-1z" fill="rgb(74,135,195)"/>
<path d="M185 221h1v1h-1v-1z" fill="rgb(92,211,229)"/>
<path d="M186 221h1v1h-1v-1z" fill="rgb(74,135,195)"/>
<path d="M187 221h1v1h-1v-1z" fill="rgb(92,211,229)"/>
<path d="M188 221h1v1h-1v-1z" fill="rgb(74,135,195)"/>
<path d="M189 221h1v1h-1v-1z" fill="rgb(92,211,229)"/>
<path d="M190 221h1v1h-1v-1z" fill="rgb(74,135,195)"/>
<path d="M144 222h1v1h-1v-1z" fill="rgb(92,211,229)"/>
<path d="M147 222h1v1h-1v-1z" fill="rgb(74,135,195)"/>
<path d="M150 222h1v1h-1v-1z" fill="rgb(92,211,229)"/>
<path d="M151 222h1v1h-1v-1z" fill="rgb(74,135,195)"/>
<path d="M152 222h1v1h-1v-1z" fill="rgb(92,211,229)"/>
<path d="M153 222h1v1h-1v-1z" fill="rgb(74,135,195)"/>
<path d="M157 222h1v1h-1v-1z" fill="rgb(74,135,195)"/>
<path d="M158 222h1v1h-1v-1z" fill="rgb(92,211,229)"/>
<path d="M159 222h1v1h-1v-1z" fill="rgb(74,135,195)"/>
<path d="M160 222h1v1h-1v-1z" fill="rgb(92,211,229)"/>
<path d="M161 222h1v1h-1v-1z" fill="rgb(74,135,195)"/>
<path d="M162 222h1v1h-1v-1z" fill="rgb(92,211,229)"/>
<path d="M163 222h1v1h-1v-1z" fill="rgb(74,135,195)"/>
<path d="M164 222h1v1h-1v-1z" fill="rgb(92,211,229)"/>
<path d="M165 222h1v1h-1v-1z" fill="rgb(74,135,195)"/>
<path d="M166 222h1v1h-1v-1z" fill="rgb(92,211,229)"/>
<path d="M167 222h1v1h-1v-1z" fill="rgb(74,135,195)"/>
<path d="M168 222h1v1h-1v-1z" fill="rgb(92,211,229)"/>
<path d="M169 222h1v1h-1v-1z" fill="rgb(74,135,195)"/>
<path d="M170 222h1v1h-1v-1z" fill="rgb(92,211,229)"/>
<path d="M171 222h1v1h-1v-1z" fill="rgb(74,135,195)"/>
<path d="M172 222h1v1h-1v-1z" fill="rgb(92,211,229)"/>
<path d="M173 222h1v1h-1v-1z" fill="rgb(74,135,195)"/>
<path d="M174 222h1v1h-1v-1z" fill="rgb(92,211,229)"/>
<path d="M175 222h1v1h-1v-1z" fill="rgb(74,135,195)"/>
<path d="M176 222h1v1h-1v-1z" fill="rgb(92,211,229)"/>
<path d="M177 222h1v1h-1v-1z" fill="rgb(74,135,195)"/>
<path d="M178 222h1v1h-1v-1z" fill="rgb(92,211,229)"/>
<path d="M179 222h1v1h-1v-1z" fill="rgb(74,135,195)"/>
<path d="M180 222h1v1h-1v-1z" fill="rgb(92,211,229)"/>
<path d="M181 222h1v1h-1v-1z" fill="rgb(74,135,195)"/>
<path d="M182 222h1v1h-1v-1z" fill="rgb(92,211,229)"/>
<path d="M183 222h1v1h-1v-1z" fill="rgb(74,135,195)"/>
<path d="M184 222h1v1h-1v-1z" fill="rgb(92,211,229)"/>
<path d="M185 222h1v1h-1v-1z" fill="rgb(74,135,195)"/>
<path d="M186 222h1v1h-1v-1z" fill="rgb(92,211,229)"/>
<path d="M187 222h1v1h-1v-1z" fill="rgb(74,135,195)"/>
<path d="M188 222h1v1h-1v-1z" fill="rgb(92,211,229)"/>
<path d="M189 222h1v1h-1v-1z" fill="rgb(74,135,195)"/>
<path d="M190 222h1v1h-1v-1z" fill="rgb(92,211,229)"/>
<path d="M191 222h1v1h-1v-1z" fill="rgb(74,135,195)"/>
<path d="M144 223h1v1h-1v-1z" fill="rgb(74,135,195)"/>
<path d="M147 223h1v1h-1v-1z" fill="rgb(92,211,229)"/>
<path d="M150 223h1v1h-1v-1z" fill="rgb(74,135,195)"/>
<path d="M152 223h1v1h-1v-1z" fill="rgb(74,135,195)"/>
<path d="M153 223h1v3h-1v-3z" fill="rgb(92,211,229)"/>
<path d="M157 223h1v1h1v1h-1v1h-1v-3z" fill="rgb(92,211,229)"/>
<path d="M158 223h1v1h-1v-1z" fill="rgb(74,135,195)"/>
<path d="M159 223h1v1h-1v-1z" fill="rgb(92,211,229)"/>
<path d="M160 223h1v1h-1v-1z" fill="rgb(74,135,195)"/>
<path d="M161 223h1v1h1v1h-1v1h-1v-1h-1v-1h1v-1z" fill="rgb(92,211,229)"/>
<path d="M162 223h1v1h-1v-1z" fill="rgb(74,135,195)"/>
<path d="M163 223h1v1h-1v-1z" fill="rgb(92,211,229)"/>
<path d="M164 223h1v1h-1v-1z" fill="rgb(74,135,195)"/>
<path d="M165 223h1v1h1v1h-1v1h-1v-1h-1v-1h1v-1z" fill="rgb(92,211,229)"/>
<path d="M166 223h1v1h-1v-1z" fill="rgb(74,135,195)"/>
<path d="M167 223h1v1h-1v-1z" fill="rgb(92,211,229)"/>
<path d="M168 223h1v1h-1v-1z" fill="rgb(74,135,195)"/>
<path d="M169 223h1v1h1v1h-1v1h-1v-1h-1v-1h1v-1z" fill="rgb(92,211,229)"/>
<path d="M170 223h1v1h-1v-1z" fill="rgb(74,135,195)"/>
<path d="M171 223h1v1h-1v-1z" fill="rgb(92,211,229)"/>
<path d="M172 223h1v1h-1v-1z" fill="rgb(74,135,195)"/>
<path d="M173 223h1v1h1v1h-1v1h-1v-1h-1v-1h1v-1z" fill="rgb(92,211,229)"/>
<path d="M174 223h1v1h-1v-1z" fill="rgb(74,135,195)"/>
<path d="M175 223h1v1h-1v-1z" fill="rgb(92,211,229)"/>
<path d="M176 223h1v1h-1v-1z" fill="rgb(74,135,195)"/>
<path d="M177 223h1v1h1v1h-1v1h-1v-1h-1v-1h1v-1z" fill="rgb(92,211,229)"/>
<path d="M178 223h1v1h-1v-1z" fill="rgb(74,135,195)"/>
<path d="M179 223h1v1h-1v-1z" fill="rgb(92,211,229)"/>
<path d="M180 223h1v1h-1v-1z" fill="rgb(74,135,195)"/>
<path d="M181 223h1v1h1v1h-1v1h-1v-1h-1v-1h1v-1z" fill="rgb(92,211,229)"/>
<path d="M182 223h1v1h-1v-1z" fill="rgb(74,135,195)"/>
<path d="M183 223h1v1h-1v-1z" fill="rgb(92,211,229)"/>
<path d="M184 223h1v1h-1v-1z" fill="rgb(74,135,195)"/>
<path d="M185 223h1v1h1v1h-1v1h-1v-1h-1v-1h1v-1z" fill="rgb(92,211,229)"/>
<path d="M186 223h1v1h-1v-1z" fill="rgb(74,135,195)"/>
<path d="M187 223h1v1h-1v-1z" fill="rgb(92,211,229)"/>
<path d="M188 223h1v1h-1v-1z" fill="rgb(74,135,195)"/>
<path d="M189 223h1v1h1v1h-1v1h-1v-1h-1v-1h1v-1z" fill="rgb(92,211,229)"/>
<path d="M190 223h1v1h-1v-1z" fill="rgb(74,135,195)"/>
<path d="M144 224h1v1h-1v-1z" fill="rgb(92,211,229)"/>
<path d="M147 224h1v1h-1v-1z" fill="rgb(74,135,195)"/>
<path d="M150 224h1v1h-1v-1z" fill="rgb(92,211,229)"/>
<path d="M159 224h1v1h-1v-1z" fill="rgb(74,135,195)"/>
<path d="M163 224h1v1h-1v-1z" fill="rgb(74,135,195)"/>
<path d="M167 224h1v1h-1v-1z" fill="rgb(74,135,195)"/>
<path d="M171 224h1v1h-1v-1z" fill="rgb(74,135,195)"/>
<path d="M175 224h1v1h-1v-1z" fill="rgb(74,135,195)"/>
<path d="M179 224h1v1h-1v-1z" fill="rgb(74,135,195)"/>
<path d="M183 224h1v1h-1v-1z" fill="rgb(74,135,195)"/>
<path d="M187 224h1v1h-1v-1z" fill="rgb(74,135,195)"/>
<path d="M191 224h1v1h-1v-1z" fill="rgb(74,135,195)"/>
<path d="M144 225h1v1h-1v-1z" fill="rgb(74,135,195)"/>
<path d="M150 225h1v1h-1v-1z" fill="rgb(74,135,195)"/>
<path d="M158 225h1v1h1v6h-2v-7z" fill="rgb(40,186,35)"/>
<path d="M159 225h1v1h-1v-1z" fill="rgb(92,211,229)"/>
<path d="M160 225h1v1h-1v-1z" fill="rgb(74,135,195)"/>
<path d="M162 225h1v1h-1v-1z" fill="rgb(74,135,195)"/>
<path d="M164 225h1v1h-1v-1z" fill="rgb(74,135,195)"/>
<path d="M166 225h1v1h-1v-1z" fill="rgb(74,135,195)"/>
<path d="M168 225h1v1h-1v-1z" fill="rgb(74,135,195)"/>
<path d="M170 225h1v1h-1v-1z" fill="rgb(74,135,195)"/>
<path d="M172 225h1v1h-1v-1z" fill="rgb(74,135,195)"/>
<path d="M174 225h1v1h-1v-1z" fill="rgb(74,135,195)"/>
<path d="M176 225h1v1h-1v-1z" fill="rgb(74,135,195)"/>
<path d="M178 225h1v1h-1v-1z" fill="rgb(74,135,195)"/>
<path d="M180 225h1v1h-1v-1z" fill="rgb(74,135,195)"/>
<path d="M182 225h1v1h-1v-1z" fill="rgb(74,135,195)"/>
<path d="M184 225h1v1h-1v-1z" fill="rgb(74,135,195)"/>
<path d="M186 225h1v1h-1v-1z" fill="rgb(74,135,195)"/>
<path d="M188 225h1v1h-1v-1z" fill="rgb(74,135,195)"/>
<path d="M190 225h1v1h-1v-1z" fill="rgb(74,135,195)"/>
<path d="M21 226h3v1h1v1h1v3h-1v1h-1v1h-3v-1h-1v-1h-1v-3h1v-1h1v-1z" fill="rgb(40,186,35)"/>
<path d="M139 226h1v1h1v5h-2v-6z" fill="rgb(40,186,35)"/>
<path d="M144 226h1v1h-1v-1z" fill="rgb(92,211,229)"/>
<path d="M150 226h1v1h-1v-1z" fill="rgb(92,211,229)"/>
<path d="M153 226h1v1h-1v-1z" fill="rgb(74,135,195)"/>
<path d="M157 226h1v1h-1v-1z" fill="rgb(74,135,195)"/>
<path d="M160 226h1v1h-1v-1z" fill="rgb(92,211,229)"/>
<path d="M161 226h1v1h-1v-1z" fill="rgb(74,135,195)"/>
<path d="M165 226h1v1h-1v-1z" fill="rgb(74,135,195)"/>
<path d="M169 226h1v1h-1v-1z" fill="rgb(74,135,195)"/>
<path d="M173 226h1v1h-1v-1z" fill="rgb(74,135,195)"/>
<path d="M177 226h1v1h-1v-1z" fill="rgb(74,135,195)"/>
<path d="M181 226h1v1h-1v-1z" fill="rgb(74,135,195)"/>
<path d="M185 226h1v1h-1v-1z" fill="rgb(74,135,195)"/>
<path d="M189 226h1v1h-1v-1z" fill="rgb(74,135,195)"/>
<path d="M144 227h1v1h-1v-1z" fill="rgb(74,135,195)"/>
<path d="M160 227h1v1h-1v-1z" fill="rgb(74,135,195)"/>
<path d="M162 227h1v1h-1v-1z" fill="rgb(74,135,195)"/>
<path d="M164 227h1v1h-1v-1z" fill="rgb(74,135,195)"/>
<path d="M166 227h1v1h-1v-1z" fill="rgb(74,135,195)"/>
<path d="M168 227h1v1h-1v-1z" fill="rgb(74,135,195)"/>
<path d="M170 227h1v1h-1v-1z" fill="rgb(74,135,195)"/>
<path d="M172 227h1v1h-1v-1z" fill="rgb(74,135,195)"/>
<path d="M174 227h1v1h-1v-1z" fill="rgb(74,135,195)"/>
<path d="M176 227h1v1h-1v-1z" fill="rgb(74,135,195)"/>
<path d="M178 227h1v1h-1v-1z" fill="rgb(74,135,195)"/>
<path d="M180 227h1v1h-1v-1z" fill="rgb(74,135,195)"/>
<path d="M182 227h1v1h-1v-1z" fill="rgb(74,135,195)"/>
<path d="M184 227h1v1h-1v-1z" fill="rgb(74,135,195)"/>
<path d="M186 227h1v1h-1v-1z" fill="rgb(74,135,195)"/>
<path d="M188 227h1v1h-1v-1z" fill="rgb(74,135,195)"/>
<path d="M190 227h1v1h-1v-1z" fill="rgb(74,135,195)"/>
<path d="M162 229h1v1h-1v-1z" fill="rgb(74,135,195)"/>
<path d="M166 229h1v1h-1v-1z" fill="rgb(74,135,195)"/>
<path d="M170 229h1v1h-1v-1z" fill="rgb(74,135,195)"/>
<path d="M174 229h1v1h-1v-1z" fill="rgb(74,135,195)"/>
<path d="M178 229h1v1h-1v-1z" fill="rgb(74,135,195)"/>
<path d="M182 229h1v1h-1v-1z" fill="rgb(74,135,195)"/>
<path d="M186 229h1v1h-1v-1z" fill="rgb(74,135,195)"/>
<path d="M190 229h1v1h-1v-1z" fill="rgb(74,135,195)"/>
<path d="M144 231h1v1h-1v-1z" fill="rgb(74,135,195)"/>
<path d="M152 231h1v1h-1v-1z" fill="rgb(74,135,195)"/>
<path d="M160 231h1v1h-1v-1z" fill="rgb(74,135,195)"/>
<path d="M164 231h1v1h-1v-1z" fill="rgb(74,135,195)"/>
<path d="M168 231h1v1h-1v-1z" fill="rgb(74,135,195)"/>
<path d="M172 231h1v1h-1v-1z" fill="rgb(74,135,195)"/>
<path d="M176 231h1v1h-1v-1z" fill="rgb(74,135,195)"/>
<path d="M180 231h1v1h-1v-1z" fill="rgb(74,135,195)"/>
<path d="M184 231h1v1h-1v-1z" fill="rgb(74,135,195)"/>
<path d="M188 231h1v1h-1v-1z" fill="rgb(74,135,195)"/>
<path d="M13 232h5v1h1v1h1v1h1v5h-1v1h-1v1h-1v1h-5v-1h-1v-1h-1v-1h-1v-5h1v-1h1
	v-1h1v-1z" fill="rgb(40,186,35)"/>
<path d="M128 232h5v1h1v4h-1v2h-1v1h-1v-4h-1v7h-1v-1h-1v-10z" fill="rgb(74,135,195)"/>
<path d="M135 232h3v13h-1v1h-1v1h-1v-15z" fill="rgb(74,135,195)"/>
<path d="M139 232h2v5h-1v1h-1v-6z" fill="rgb(74,135,195)"/>
<path d="M142 232h2v12h-1v-1h-1v-11z" fill="rgb(74,135,195)"/>
<path d="M147 232h5v2h1v6h-1v1h-1v-4h-1v9h-1v1h-1v-8h-1v5h-1v-1h-1v-7h1v-2h1v-2z" fill="rgb(74,135,195)"/>
<path d="M154 232h3v13h-2v-2h-1v-11z" fill="rgb(74,135,195)"/>
<path d="M158 232h2v6h-1v1h-1v-7z" fill="rgb(74,135,195)"/>
<path d="M13 235h2v1h1v-1h2v2h-1v1h1v2h-2v-1h-1v1h-2v-2h1v-1h-1v-2z" fill="rgb(228,226,21)"/>
</svg>