<?xml version="1.0" encoding="utf-8"?>
<!-- generated at drububu.com  -->
<!DOCTYPE svg PUBLIC "-//W3C//DTD SVG 1.1//EN" "http://www.w3.org/Graphics/SVG/1.1/DTD/svg11.dtd">
<svg version="1.1" preserveAspectRatio="xMinYMin meet" xmlns="http://www.w3.org/2000/svg" xmlns:xlink="http://www.w3.org/1999/xlink" x="0px" y="0px" width="128px" height="128px" viewBox="0 0 128 128">
<path d="M0 0h128v128h-32v-46h-1v-1h-2v-1h-30v-1h-1v-2h1v-2h5v1h1v-1h2v-1h-1v-2
	h1v-1h-2v-1h-1v1h-2v1h-3v-2h1v-6h2v-1h1v-3h-1v-1h-1v-1h-5v1h-4v1h-3v1h-2v1h-1
	v2h-1v3h-1v2h1v1h1v1h2v1h-1v2h1v2h-1v4h-19v-14h-1v-1h-2v-1h-29v-64z" fill="rgb(50,180,255)"/>
<path d="M92 3h6v1h2v1h1v1h1v1h1v2h1v5h-1v2h-1v1h1v-1h1v-2h1v-1h2v1h2v1h2v1h1v1
	h1v1h1v2h1v2h1v7h-1v2h-1v2h-1v1h-1v1h1v-1h1v-1h1v-2h2v1h2v1h1v2h1v2h1v5h-1v2
	h-1v2h-1v1h-9v-1h-2v-1h-2v-1h-1v-1h-1v-1h-1v-4h1v-2h1v-2h-1v1h-4v-1h-2v-1h-2v-1
	h-1v-1h-1v-1h-1v-1h-1v-1h-1v-6h1v-2h1v-2h1v-1h-5v-1h-1v-1h-2v-6h1v-2h1v-1h1v-1
	h1v-1h2v-1z" fill="rgb(255,230,210)"/>
<path d="M91 6h2v1h-2v-1z" fill="rgb(50,180,255)"/>
<path d="M90 7h1v1h-1v-1z" fill="rgb(50,180,255)"/>
<path d="M89 8h1v2h-1v-2z" fill="rgb(50,180,255)"/>
<path d="M19 10h6v1h2v1h1v1h1v1h1v2h1v4h-1v2h-1v1h1v-1h1v-2h1v-2h2v1h2v1h1v1h1
	v2h1v5h-1v2h-3v1h-6v-1h-2v2h1v1h2v1h1v1h-1v2h-1v1h-8v-1h-2v-1h-1v-1h-2v-2h-1v2
	h-4v-1h-2v-1h-1v-1h-2v-1h-1v-5h1v-2h1v-1h1v-1h1v-1h2v-1h2v-4h1v-2h1v-1h1v-1h1
	v-1h2v-1z" fill="rgb(255,230,210)"/>
<path d="M18 13h2v1h-2v-1z" fill="rgb(50,180,255)"/>
<path d="M17 14h1v1h-1v-1z" fill="rgb(50,180,255)"/>
<path d="M103 14h1v2h-1v-2z" fill="rgb(50,180,255)"/>
<path d="M16 15h1v2h-1v-2z" fill="rgb(50,180,255)"/>
<path d="M87 15h1v1h1v1h4v1h-1v2h-2v-1h-1v-1h-1v-1h-1v-2z" fill="rgb(255,180,0)"/>
<path d="M94 16h1v1h-1v-1z" fill="rgb(50,180,255)"/>
<path d="M102 16h1v1h-1v-1z" fill="rgb(50,180,255)"/>
<path d="M93 17h1v1h-1v-1z" fill="rgb(50,180,255)"/>
<path d="M92 18h1v2h-1v-2z" fill="rgb(50,180,255)"/>
<path d="M13 20h1v2h-1v-2z" fill="rgb(50,180,255)"/>
<path d="M30 20h1v2h-1v-2z" fill="rgb(50,180,255)"/>
<path d="M14 22h1v1h-1v-1z" fill="rgb(50,180,255)"/>
<path d="M29 22h1v1h-1v-1z" fill="rgb(50,180,255)"/>
<path d="M9 23h2v1h-2v-1z" fill="rgb(50,180,255)"/>
<path d="M8 24h1v1h-1v-1z" fill="rgb(50,180,255)"/>
<path d="M7 25h1v2h-1v-2z" fill="rgb(50,180,255)"/>
<path d="M91 28h1v1h-1v-1z" fill="rgb(255,180,0)"/>
<path d="M92 29h1v1h1v1h1v1h1v1h2v1h2v1h4v1h-1v2h-3v-1h-2v-1h-2v-1h-1v-1h-1v-1
	h-1v-2h-1v-2z" fill="rgb(255,180,0)"/>
<path d="M27 30h2v1h6v-1h2v1h-1v1h-2v1h-4v-1h-2v-1h-1v-1z" fill="rgb(255,180,0)"/>
<path d="M27 31h1v1h-1v-1z" fill="rgb(50,180,255)"/>
<path d="M114 31h1v2h-1v-2z" fill="rgb(50,180,255)"/>
<path d="M6 32h2v1h1v1h2v1h5v2h-5v-1h-2v-1h-1v-1h-1v-1h-1v-1z" fill="rgb(255,180,0)"/>
<path d="M28 32h2v1h-2v-1z" fill="rgb(50,180,255)"/>
<path d="M15 33h1v2h-1v-2z" fill="rgb(50,180,255)"/>
<path d="M113 33h1v1h-1v-1z" fill="rgb(50,180,255)"/>
<path d="M104 34h1v2h-1v-2z" fill="rgb(50,180,255)"/>
<path d="M112 34h1v1h-1v-1z" fill="rgb(50,180,255)"/>
<path d="M17 35h1v1h1v1h2v1h7v1h-2v1h-5v-1h-2v-1h-1v-1h-1v-2z" fill="rgb(255,180,0)"/>
<path d="M103 36h1v2h-1v-2z" fill="rgb(50,180,255)"/>
<path d="M104 43h1v1h-1v-1z" fill="rgb(255,180,0)"/>
<path d="M105 44h1v1h2v1h2v1h7v1h-2v1h-5v-1h-2v-1h-2v-1h-1v-2z" fill="rgb(255,180,0)"/>
<path d="M60 58h5v1h1v1h1v2h-5v-1h-5v1h-2v1h-2v1h-1v1h-1v1h-1v1h-1v-3h1v-2h1v-1
	h2v-1h3v-1h4v-1z" fill="rgb(153,95,61)"/>
<path d="M57 61h5v1h5v1h-1v1h-4v-1h-5v1h-2v1h-2v1h-1v1h-1v3h1v1h-2v-1h-1v-1h-1
	v-1h1v-1h1v-1h1v-1h1v-1h1v-1h2v-1h2v-1z" fill="rgb(30,40,50)"/>
<path d="M57 63h5v1h2v1h-3v4h2v-3h1v4h-1v1h-11v-1h-1v-3h1v-1h1v-1h2v-1h2v-1z" fill="rgb(255,230,210)"/>
<path d="M0 64h29v1h-2v2h2v-2h2v1h1v2h-2v1h-3v1h-3v1h-4v1h-8v-1h-4v-1h-3v-1h-3
	v-1h-2v-4z" fill="rgb(10,200,50)"/>
<path d="M10 65h2v2h-2v-2z" fill="rgb(204,102,204)"/>
<path d="M27 65h2v2h-2v-2z" fill="rgb(255,180,0)"/>
<path d="M55 65h3v4h-2v-3h-1v-1z" fill="rgb(30,40,50)"/>
<path d="M61 65h3v1h-1v3h-2v-4z" fill="rgb(30,40,50)"/>
<path d="M4 66h2v2h-2v-2z" fill="rgb(204,102,204)"/>
<path d="M17 66h2v2h-2v-2z" fill="rgb(255,180,0)"/>
<path d="M48 67h1v1h-1v-1z" fill="rgb(153,95,61)"/>
<path d="M0 68h2v1h3v1h3v1h4v1h8v-1h4v-1h3v-1h3v-1h2v16h2v1h3v1h3v1h4v1h8v-1h4
	v-1h3v-1h3v-1h4v1h3v1h3v1h4v1h8v-1h4v-1h3v-1h3v-1h2v44h-96v-25h9v1h7v1h3v1h2v1
	h1v1h1v2h1v3h1v2h1v1h2v1h3v1h1v1h9v1h7v-1h9v1h7v-1h9v1h7v-1h9v1h6v-27h-1v-1h1
	v-5h-1v1h-3v1h-3v1h-4v1h-3v1h-2v-1h-3v-1h-4v-1h-3v-1h-1v1h-1v-1h-1v-1h-4v1h-3v1
	h-3v1h-4v1h-3v1h-2v-1h-3v-1h-4v-1h-3v-1h-1v1h-1v-1h-1v-1h-2v-1h-1v-9h-1v-1h1v-5
	h-1v1h-3v1h-3v1h-4v1h-3v1h-2v-1h-3v-1h-4v-1h-3v-1h-1v1h-1v-1h-1v-1h-2v-3z" fill="rgb(30,40,50)"/>
<path d="M13 68h2v2h-2v-2z" fill="rgb(255,180,0)"/>
<path d="M21 68h2v2h-2v-2z" fill="rgb(204,102,204)"/>
<path d="M69 69h1v1h-1v-1z" fill="rgb(255,230,210)"/>
<path d="M112 69h7v1h-4v4h4v1h-7v-1h1v-1h-2v-1h2v-1h1v-1h-2v-1z" fill="rgb(255,230,210)"/>
<path d="M68 70h1v1h2v1h-1v2h1v1h-2v1h-1v-1h-1v-4h1v-1z" fill="rgb(255,230,210)"/>
<path d="M78 70h7v1h-4v4h4v1h-7v-1h2v-1h-1v-1h-2v-1h2v-1h-1v-1z" fill="rgb(255,230,210)"/>
<path d="M115 70h4v1h1v2h-1v1h-4v-4z" fill="rgb(204,102,204)"/>
<path d="M119 70h1v1h-1v-1z" fill="rgb(255,230,210)"/>
<path d="M0 71h2v1h1v1h-1v1h-1v1h-1v-4z" fill="rgb(10,200,50)"/>
<path d="M30 71h1v1h-1v-1z" fill="rgb(255,230,210)"/>
<path d="M52 71h4v1h-1v1h-1v3h3v1h-2v1h-4v-2h1v-1h1v-1h-1v-1h-1v-1h1v-1z" fill="rgb(199,59,50)"/>
<path d="M56 71h3v1h-3v-1z" fill="rgb(30,40,50)"/>
<path d="M59 71h3v1h-3v-1z" fill="rgb(199,59,50)"/>
<path d="M62 71h1v1h-1v-1z" fill="rgb(30,40,50)"/>
<path d="M66 71h1v3h-3v-1h-2v1h-4v1h-1v-1h-1v-1h1v-1h9v-1z" fill="rgb(255,180,0)"/>
<path d="M81 71h4v1h1v2h-1v1h-4v-4z" fill="rgb(204,102,204)"/>
<path d="M85 71h1v1h-1v-1z" fill="rgb(255,230,210)"/>
<path d="M120 71h1v2h-1v-2z" fill="rgb(255,230,210)"/>
<path d="M4 72h1v1h3v1h2v1h-1v2h-1v1h-1v1h-2v1h-1v1h-1v1h-1v1h-1v2h-1v-9h1v-1h1
	v-1h1v-1h1v-1z" fill="rgb(153,95,61)"/>
<path d="M27 72h1v1h-1v-1z" fill="rgb(153,95,61)"/>
<path d="M28 72h1v1h-1v-1z" fill="rgb(255,230,210)"/>
<path d="M29 72h1v1h-1v-1z" fill="rgb(255,180,0)"/>
<path d="M30 72h1v4h-1v1h-1v2h-1v1h-1v1h-1v1h-1v1h-2v1h-1v1h-1v2h-1v1h-1v1h-1v1
	h-1v1h-3v-3h3v-1h1v-2h1v-2h1v-1h1v-1h1v-1h3v-1h1v-2h1v-2h1v-1h1v-1h1v-1z" fill="rgb(10,200,50)"/>
<path d="M55 72h1v1h-1v-1z" fill="rgb(30,40,50)"/>
<path d="M56 72h1v1h-1v-1z" fill="rgb(199,59,50)"/>
<path d="M86 72h1v2h-1v-2z" fill="rgb(255,230,210)"/>
<path d="M2 73h1v1h-1v-1z" fill="rgb(30,40,50)"/>
<path d="M24 73h3v1h-1v1h-1v2h-1v1h-1v1h-2v1h-1v1h-1v1h-1v1h-1v2h-1v1h-1v1h-1v1
	h-1v3h1v1h3v-1h1v-1h1v-1h1v-1h1v-1h1v-2h1v-1h2v-1h1v-1h1v-1h1v-1h1v-1h1v-2h1v9
	h1v1h-1v1h-1v1h-1v2h1v1h3v-1h1v-1h1v-1h1v-1h1v1h3v1h2v1h-1v2h-1v1h-1v1h-2v1h-1
	v1h-1v1h-1v1h-1v2h-1v2h-1v1h-1v1h-1v2h1v1h3v-1h1v-1h1v-1h1v-1h1v-1h1v-2h1v-1h2
	v-1h1v-1h1v-1h1v-1h1v-1h1v-2h1v-1h2v-1h3v-1h4v-1h3v1h-1v1h-1v2h-1v1h-1v1h-2v1
	h-1v1h-1v1h-1v1h-1v2h-1v2h-1v1h-1v1h-1v2h1v1h3v-1h1v-1h1v-1h1v-1h1v-1h1v-2h1v-1
	h2v-1h1v-1h1v-1h1v-1h1v-1h1v-2h1v-1h2v-1h1v-1h1v-1h1v-1h1v1h3v1h2v1h-1v2h-1v1
	h-1v1h-2v1h-1v1h-1v1h-1v1h-1v2h-1v2h-1v1h-1v1h-1v2h1v1h3v-1h1v-1h1v-1h1v-1h1v-1
	h1v-2h1v-1h2v-1h1v-1h1v-1h1v-1h1v-1h1v-2h1v-1h2v-1h3v-1h4v-1h3v1h-1v1h-1v2h-1
	v1h-1v1h-2v1h-1v1h-1v1h-1v1h-1v2h-1v2h-1v1h-1v1h-1v2h1v1h3v-1h1v-1h1v-1h1v-1h1
	v-1h1v-2h1v-1h2v-1h1v-1h1v-1h1v-1h1v-1h1v-2h1v27h-6v-1h-9v1h-7v-1h-9v1h-7v-1h-9
	v1h-7v-1h-9v-1h-1v-1h-3v-1h-2v-1h-1v-2h-1v-3h-1v-2h-1v-1h-1v-1h-2v-1h-3v-1h-7
	v-1h-9v-11h1v-1h1v-1h1v-1h1v-1h1v-1h1v-2h1v-1h2v-1h1v-1h1v-1h1v-1h1v-1h1v-2h1
	v-1h2v-1h3v-1h4v-1z" fill="rgb(153,95,61)"/>
<path d="M27 73h1v1h-1v-1z" fill="rgb(255,230,210)"/>
<path d="M28 73h1v1h-1v-1z" fill="rgb(255,180,0)"/>
<path d="M51 73h1v1h-1v-1z" fill="rgb(30,40,50)"/>
<path d="M54 73h2v1h1v1h-1v1h-2v-3z" fill="rgb(255,230,210)"/>
<path d="M62 73h2v1h1v1h-4v-1h1v-1z" fill="rgb(255,230,210)"/>
<path d="M119 73h1v1h-1v-1z" fill="rgb(255,230,210)"/>
<path d="M1 74h1v1h-1v-1z" fill="rgb(30,40,50)"/>
<path d="M4 74h2v1h1v2h-1v1h-2v-1h-1v-2h1v-1z" fill="rgb(30,40,50)"/>
<path d="M10 74h1v1h-1v-1z" fill="rgb(255,230,210)"/>
<path d="M11 74h1v1h-1v-1z" fill="rgb(255,180,0)"/>
<path d="M26 74h1v1h-1v-1z" fill="rgb(255,230,210)"/>
<path d="M27 74h1v1h-1v-1z" fill="rgb(255,180,0)"/>
<path d="M52 74h1v1h-1v-1z" fill="rgb(30,40,50)"/>
<path d="M58 74h3v1h-2v2h-1v-1h-2v-1h2v-1z" fill="rgb(30,40,50)"/>
<path d="M65 74h2v1h-2v-1z" fill="rgb(30,40,50)"/>
<path d="M85 74h1v1h-1v-1z" fill="rgb(255,230,210)"/>
<path d="M0 75h1v1h-1v-1z" fill="rgb(30,40,50)"/>
<path d="M9 75h1v2h-1v-2z" fill="rgb(255,230,210)"/>
<path d="M10 75h1v2h-1v-2z" fill="rgb(255,180,0)"/>
<path d="M11 75h4v1h-1v1h-1v2h-1v1h-1v1h-1v1h-1v1h-2v1h-1v1h-1v2h-1v1h-1v1h-1v1
	h-1v1h-1v-3h1v-1h1v-2h1v-2h1v-1h1v-1h1v-1h3v-1h1v-2h1v-2z" fill="rgb(10,200,50)"/>
<path d="M21 75h1v1h1v1h-1v1h-1v-1h-1v-1h1v-1z" fill="rgb(255,230,210)"/>
<path d="M25 75h1v2h-1v-2z" fill="rgb(255,230,210)"/>
<path d="M26 75h1v2h-1v-2z" fill="rgb(255,180,0)"/>
<path d="M59 75h4v2h-1v1h-2v-1h-1v-2z" fill="rgb(199,59,50)"/>
<path d="M14 76h1v1h-1v-1z" fill="rgb(30,40,50)"/>
<path d="M57 76h1v1h1v3h-4v-1h-1v-1h1v-1h2v-1z" fill="rgb(50,180,255)"/>
<path d="M69 76h1v1h-1v-1z" fill="rgb(255,230,210)"/>
<path d="M8 77h1v2h-2v-1h1v-1z" fill="rgb(255,230,210)"/>
<path d="M9 77h1v2h-1v-2z" fill="rgb(255,180,0)"/>
<path d="M13 77h1v2h-1v-2z" fill="rgb(30,40,50)"/>
<path d="M24 77h1v2h-2v-1h1v-1z" fill="rgb(255,230,210)"/>
<path d="M25 77h1v2h-1v-2z" fill="rgb(255,180,0)"/>
<path d="M29 77h1v2h-1v-2z" fill="rgb(30,40,50)"/>
<path d="M59 77h1v1h2v1h1v1h-4v-3z" fill="rgb(30,40,50)"/>
<path d="M51 78h3v1h1v1h-4v-2z" fill="rgb(30,40,50)"/>
<path d="M5 79h2v1h-2v-1z" fill="rgb(255,230,210)"/>
<path d="M7 79h2v1h-2v-1z" fill="rgb(255,180,0)"/>
<path d="M12 79h1v1h-1v-1z" fill="rgb(30,40,50)"/>
<path d="M21 79h2v1h-2v-1z" fill="rgb(255,230,210)"/>
<path d="M23 79h2v1h-2v-1z" fill="rgb(255,180,0)"/>
<path d="M28 79h1v1h-1v-1z" fill="rgb(30,40,50)"/>
<path d="M4 80h1v1h-1v-1z" fill="rgb(255,230,210)"/>
<path d="M5 80h1v1h-1v-1z" fill="rgb(255,180,0)"/>
<path d="M11 80h1v1h-1v-1z" fill="rgb(30,40,50)"/>
<path d="M20 80h1v1h-1v-1z" fill="rgb(255,230,210)"/>
<path d="M21 80h1v1h-1v-1z" fill="rgb(255,180,0)"/>
<path d="M27 80h1v1h-1v-1z" fill="rgb(30,40,50)"/>
<path d="M32 80h61v1h-2v2h2v-2h2v1h1v2h-2v1h-3v1h-3v1h-4v1h-8v-1h-4v-1h-3v-1h-3
	v-1h-4v1h-3v1h-3v1h-4v1h-8v-1h-4v-1h-3v-1h-3v-1h-2v-4z" fill="rgb(10,200,50)"/>
<path d="M3 81h1v1h-1v-1z" fill="rgb(255,230,210)"/>
<path d="M4 81h1v1h-1v-1z" fill="rgb(255,180,0)"/>
<path d="M10 81h1v1h-1v-1z" fill="rgb(30,40,50)"/>
<path d="M19 81h1v1h-1v-1z" fill="rgb(255,230,210)"/>
<path d="M20 81h1v1h-1v-1z" fill="rgb(255,180,0)"/>
<path d="M26 81h1v1h-1v-1z" fill="rgb(30,40,50)"/>
<path d="M42 81h2v2h-2v-2z" fill="rgb(255,180,0)"/>
<path d="M59 81h2v2h-2v-2z" fill="rgb(204,102,204)"/>
<path d="M74 81h2v2h-2v-2z" fill="rgb(204,102,204)"/>
<path d="M91 81h2v2h-2v-2z" fill="rgb(204,102,204)"/>
<path d="M2 82h1v1h-1v-1z" fill="rgb(255,230,210)"/>
<path d="M3 82h1v1h-1v-1z" fill="rgb(255,180,0)"/>
<path d="M9 82h1v1h-1v-1z" fill="rgb(30,40,50)"/>
<path d="M18 82h1v1h-1v-1z" fill="rgb(255,230,210)"/>
<path d="M19 82h1v1h-1v-1z" fill="rgb(255,180,0)"/>
<path d="M25 82h1v1h-1v-1z" fill="rgb(30,40,50)"/>
<path d="M36 82h2v2h-2v-2z" fill="rgb(204,102,204)"/>
<path d="M49 82h2v2h-2v-2z" fill="rgb(255,180,0)"/>
<path d="M68 82h2v2h-2v-2z" fill="rgb(204,102,204)"/>
<path d="M81 82h2v2h-2v-2z" fill="rgb(255,180,0)"/>
<path d="M1 83h1v2h-1v-2z" fill="rgb(255,230,210)"/>
<path d="M2 83h1v2h-1v-2z" fill="rgb(255,180,0)"/>
<path d="M7 83h2v1h-2v-1z" fill="rgb(30,40,50)"/>
<path d="M11 83h2v1h1v2h-1v1h-2v-1h-1v-2h1v-1z" fill="rgb(30,40,50)"/>
<path d="M17 83h1v2h-1v-2z" fill="rgb(255,230,210)"/>
<path d="M18 83h1v2h-1v-2z" fill="rgb(255,180,0)"/>
<path d="M23 83h2v1h-2v-1z" fill="rgb(30,40,50)"/>
<path d="M27 83h2v1h1v2h-1v1h-2v-1h-1v-2h1v-1z" fill="rgb(30,40,50)"/>
<path d="M6 84h1v1h-1v-1z" fill="rgb(30,40,50)"/>
<path d="M22 84h1v1h-1v-1z" fill="rgb(30,40,50)"/>
<path d="M45 84h2v2h-2v-2z" fill="rgb(255,180,0)"/>
<path d="M53 84h2v2h-2v-2z" fill="rgb(204,102,204)"/>
<path d="M77 84h2v2h-2v-2z" fill="rgb(255,180,0)"/>
<path d="M85 84h2v2h-2v-2z" fill="rgb(255,180,0)"/>
<path d="M0 85h1v2h-1v-2z" fill="rgb(255,230,210)"/>
<path d="M1 85h1v2h-1v-2z" fill="rgb(255,180,0)"/>
<path d="M5 85h1v2h-1v-2z" fill="rgb(30,40,50)"/>
<path d="M16 85h1v2h-1v1h-2v-1h1v-1h1v-1z" fill="rgb(255,230,210)"/>
<path d="M17 85h1v2h-1v-2z" fill="rgb(255,180,0)"/>
<path d="M21 85h1v2h-1v-2z" fill="rgb(30,40,50)"/>
<path d="M0 87h1v1h-1v-1z" fill="rgb(255,180,0)"/>
<path d="M4 87h1v1h-1v-1z" fill="rgb(30,40,50)"/>
<path d="M16 87h1v1h-1v-1z" fill="rgb(255,180,0)"/>
<path d="M20 87h1v1h-1v-1z" fill="rgb(30,40,50)"/>
<path d="M31 87h1v1h-1v-1z" fill="rgb(255,230,210)"/>
<path d="M32 87h2v1h1v1h-1v1h-1v1h-3v-2h1v-1h1v-1z" fill="rgb(10,200,50)"/>
<path d="M62 87h1v1h-1v-1z" fill="rgb(255,230,210)"/>
<path d="M63 87h1v1h-1v-1z" fill="rgb(255,180,0)"/>
<path d="M64 87h2v1h1v1h-1v1h-1v1h-2v1h-1v1h-1v2h-1v1h-1v1h-1v1h-1v1h-2v1h-1v1
	h-1v2h-1v1h-1v1h-1v1h-1v1h-3v-2h1v-1h2v-1h1v-2h1v-2h1v-1h1v-1h1v-1h3v-1h1v-2h1
	v-2h1v-1h1v-1h1v-1h2v-1z" fill="rgb(10,200,50)"/>
<path d="M94 87h1v1h-1v-1z" fill="rgb(255,230,210)"/>
<path d="M3 88h1v1h-1v-1z" fill="rgb(30,40,50)"/>
<path d="M13 88h1v2h-1v-2z" fill="rgb(255,230,210)"/>
<path d="M19 88h1v1h-1v-1z" fill="rgb(30,40,50)"/>
<path d="M30 88h1v1h-1v-1z" fill="rgb(255,230,210)"/>
<path d="M59 88h1v1h-1v-1z" fill="rgb(153,95,61)"/>
<path d="M60 88h1v1h-1v-1z" fill="rgb(255,230,210)"/>
<path d="M61 88h1v1h-1v-1z" fill="rgb(255,180,0)"/>
<path d="M91 88h1v1h-1v-1z" fill="rgb(153,95,61)"/>
<path d="M92 88h1v1h-1v-1z" fill="rgb(255,230,210)"/>
<path d="M93 88h1v1h-1v-1z" fill="rgb(255,180,0)"/>
<path d="M94 88h1v4h-1v1h-1v2h-1v1h-1v1h-1v1h-1v1h-2v1h-1v1h-1v2h-1v1h-1v1h-1v1
	h-1v1h-3v-2h1v-1h2v-1h1v-2h1v-2h1v-1h1v-1h1v-1h3v-1h1v-2h1v-2h1v-1h1v-1h1v-1z" fill="rgb(10,200,50)"/>
<path d="M2 89h1v1h-1v-1z" fill="rgb(30,40,50)"/>
<path d="M18 89h1v1h-1v-1z" fill="rgb(30,40,50)"/>
<path d="M29 89h1v1h-1v-1z" fill="rgb(255,230,210)"/>
<path d="M34 89h1v1h-1v-1z" fill="rgb(30,40,50)"/>
<path d="M59 89h1v1h-1v-1z" fill="rgb(255,230,210)"/>
<path d="M60 89h1v1h-1v-1z" fill="rgb(255,180,0)"/>
<path d="M66 89h1v1h-1v-1z" fill="rgb(30,40,50)"/>
<path d="M91 89h1v1h-1v-1z" fill="rgb(255,230,210)"/>
<path d="M92 89h1v1h-1v-1z" fill="rgb(255,180,0)"/>
<path d="M1 90h1v1h-1v-1z" fill="rgb(30,40,50)"/>
<path d="M13 90h1v1h-1v-1z" fill="rgb(255,180,0)"/>
<path d="M17 90h1v1h-1v-1z" fill="rgb(30,40,50)"/>
<path d="M29 90h1v1h-1v-1z" fill="rgb(255,180,0)"/>
<path d="M33 90h1v1h-1v-1z" fill="rgb(30,40,50)"/>
<path d="M36 90h2v1h1v2h-1v1h-2v-1h-1v-2h1v-1z" fill="rgb(30,40,50)"/>
<path d="M42 90h1v1h-1v-1z" fill="rgb(255,230,210)"/>
<path d="M43 90h1v1h-1v-1z" fill="rgb(255,180,0)"/>
<path d="M58 90h1v1h-1v-1z" fill="rgb(255,230,210)"/>
<path d="M59 90h1v1h-1v-1z" fill="rgb(255,180,0)"/>
<path d="M65 90h1v1h-1v-1z" fill="rgb(30,40,50)"/>
<path d="M68 90h2v1h1v2h-1v1h-2v-1h-1v-2h1v-1z" fill="rgb(30,40,50)"/>
<path d="M74 90h1v1h-1v-1z" fill="rgb(255,230,210)"/>
<path d="M75 90h1v1h-1v-1z" fill="rgb(255,180,0)"/>
<path d="M90 90h1v1h-1v-1z" fill="rgb(255,230,210)"/>
<path d="M91 90h1v1h-1v-1z" fill="rgb(255,180,0)"/>
<path d="M0 91h1v1h-1v-1z" fill="rgb(30,40,50)"/>
<path d="M4 91h1v1h1v1h-1v1h-1v-1h-1v-1h1v-1z" fill="rgb(255,230,210)"/>
<path d="M14 91h2v1h-2v-1z" fill="rgb(255,180,0)"/>
<path d="M16 91h1v1h-1v-1z" fill="rgb(30,40,50)"/>
<path d="M20 91h1v1h1v1h-1v1h-1v-1h-1v-1h1v-1z" fill="rgb(255,230,210)"/>
<path d="M30 91h2v1h-2v-1z" fill="rgb(255,180,0)"/>
<path d="M32 91h1v1h-1v-1z" fill="rgb(30,40,50)"/>
<path d="M41 91h1v2h-1v-2z" fill="rgb(255,230,210)"/>
<path d="M42 91h1v2h-1v-2z" fill="rgb(255,180,0)"/>
<path d="M43 91h4v1h-1v1h-1v2h-1v1h-1v1h-1v1h-1v1h-2v1h-1v1h-1v2h-1v1h-1v1h-1v1
	h-1v1h-3v-2h1v-1h2v-1h1v-2h1v-2h1v-1h1v-1h1v-1h3v-1h1v-2h1v-2z" fill="rgb(10,200,50)"/>
<path d="M53 91h1v1h1v1h-1v1h-1v-1h-1v-1h1v-1z" fill="rgb(255,230,210)"/>
<path d="M57 91h1v2h-1v-2z" fill="rgb(255,230,210)"/>
<path d="M58 91h1v2h-1v-2z" fill="rgb(255,180,0)"/>
<path d="M63 91h2v1h-2v-1z" fill="rgb(30,40,50)"/>
<path d="M73 91h1v2h-1v-2z" fill="rgb(255,230,210)"/>
<path d="M74 91h1v2h-1v-2z" fill="rgb(255,180,0)"/>
<path d="M75 91h4v1h-1v1h-1v2h-1v1h-1v1h-1v1h-1v1h-2v1h-1v1h-1v2h-1v1h-1v1h-1v1
	h-1v1h-3v-2h1v-1h2v-1h1v-2h1v-2h1v-1h1v-1h1v-1h3v-1h1v-2h1v-2z" fill="rgb(10,200,50)"/>
<path d="M85 91h1v1h1v1h-1v1h-1v-1h-1v-1h1v-1z" fill="rgb(255,230,210)"/>
<path d="M89 91h1v2h-1v-2z" fill="rgb(255,230,210)"/>
<path d="M90 91h1v2h-1v-2z" fill="rgb(255,180,0)"/>
<path d="M46 92h1v1h-1v-1z" fill="rgb(30,40,50)"/>
<path d="M62 92h1v1h-1v-1z" fill="rgb(30,40,50)"/>
<path d="M78 92h1v1h-1v-1z" fill="rgb(30,40,50)"/>
<path d="M40 93h1v2h-2v-1h1v-1z" fill="rgb(255,230,210)"/>
<path d="M41 93h1v2h-1v-2z" fill="rgb(255,180,0)"/>
<path d="M45 93h1v2h-1v-2z" fill="rgb(30,40,50)"/>
<path d="M56 93h1v2h-2v-1h1v-1z" fill="rgb(255,230,210)"/>
<path d="M57 93h1v2h-1v-2z" fill="rgb(255,180,0)"/>
<path d="M61 93h1v2h-1v-2z" fill="rgb(30,40,50)"/>
<path d="M72 93h1v2h-2v-1h1v-1z" fill="rgb(255,230,210)"/>
<path d="M73 93h1v2h-1v-2z" fill="rgb(255,180,0)"/>
<path d="M77 93h1v2h-1v-2z" fill="rgb(30,40,50)"/>
<path d="M88 93h1v2h-2v-1h1v-1z" fill="rgb(255,230,210)"/>
<path d="M89 93h1v2h-1v-2z" fill="rgb(255,180,0)"/>
<path d="M93 93h1v2h-1v-2z" fill="rgb(30,40,50)"/>
<path d="M37 95h2v1h-2v-1z" fill="rgb(255,230,210)"/>
<path d="M39 95h2v1h-2v-1z" fill="rgb(255,180,0)"/>
<path d="M44 95h1v1h-1v-1z" fill="rgb(30,40,50)"/>
<path d="M53 95h2v1h-2v-1z" fill="rgb(255,230,210)"/>
<path d="M55 95h2v1h-2v-1z" fill="rgb(255,180,0)"/>
<path d="M60 95h1v1h-1v-1z" fill="rgb(30,40,50)"/>
<path d="M69 95h2v1h-2v-1z" fill="rgb(255,230,210)"/>
<path d="M71 95h2v1h-2v-1z" fill="rgb(255,180,0)"/>
<path d="M76 95h1v1h-1v-1z" fill="rgb(30,40,50)"/>
<path d="M85 95h2v1h-2v-1z" fill="rgb(255,230,210)"/>
<path d="M87 95h2v1h-2v-1z" fill="rgb(255,180,0)"/>
<path d="M92 95h1v1h-1v-1z" fill="rgb(30,40,50)"/>
<path d="M36 96h1v1h-1v-1z" fill="rgb(255,230,210)"/>
<path d="M37 96h1v1h-1v-1z" fill="rgb(255,180,0)"/>
<path d="M43 96h1v1h-1v-1z" fill="rgb(30,40,50)"/>
<path d="M52 96h1v1h-1v-1z" fill="rgb(255,230,210)"/>
<path d="M53 96h1v1h-1v-1z" fill="rgb(255,180,0)"/>
<path d="M59 96h1v1h-1v-1z" fill="rgb(30,40,50)"/>
<path d="M68 96h1v1h-1v-1z" fill="rgb(255,230,210)"/>
<path d="M69 96h1v1h-1v-1z" fill="rgb(255,180,0)"/>
<path d="M75 96h1v1h-1v-1z" fill="rgb(30,40,50)"/>
<path d="M84 96h1v1h-1v-1z" fill="rgb(255,230,210)"/>
<path d="M85 96h1v1h-1v-1z" fill="rgb(255,180,0)"/>
<path d="M91 96h1v1h-1v-1z" fill="rgb(30,40,50)"/>
<path d="M35 97h1v1h-1v-1z" fill="rgb(255,230,210)"/>
<path d="M36 97h1v1h-1v-1z" fill="rgb(255,180,0)"/>
<path d="M42 97h1v1h-1v-1z" fill="rgb(30,40,50)"/>
<path d="M51 97h1v1h-1v-1z" fill="rgb(255,230,210)"/>
<path d="M52 97h1v1h-1v-1z" fill="rgb(255,180,0)"/>
<path d="M58 97h1v1h-1v-1z" fill="rgb(30,40,50)"/>
<path d="M67 97h1v1h-1v-1z" fill="rgb(255,230,210)"/>
<path d="M68 97h1v1h-1v-1z" fill="rgb(255,180,0)"/>
<path d="M74 97h1v1h-1v-1z" fill="rgb(30,40,50)"/>
<path d="M83 97h1v1h-1v-1z" fill="rgb(255,230,210)"/>
<path d="M84 97h1v1h-1v-1z" fill="rgb(255,180,0)"/>
<path d="M90 97h1v1h-1v-1z" fill="rgb(30,40,50)"/>
<path d="M34 98h1v1h-1v-1z" fill="rgb(255,230,210)"/>
<path d="M35 98h1v1h-1v-1z" fill="rgb(255,180,0)"/>
<path d="M41 98h1v1h-1v-1z" fill="rgb(30,40,50)"/>
<path d="M50 98h1v1h-1v-1z" fill="rgb(255,230,210)"/>
<path d="M51 98h1v1h-1v-1z" fill="rgb(255,180,0)"/>
<path d="M57 98h1v1h-1v-1z" fill="rgb(30,40,50)"/>
<path d="M66 98h1v1h-1v-1z" fill="rgb(255,230,210)"/>
<path d="M67 98h1v1h-1v-1z" fill="rgb(255,180,0)"/>
<path d="M73 98h1v1h-1v-1z" fill="rgb(30,40,50)"/>
<path d="M82 98h1v1h-1v-1z" fill="rgb(255,230,210)"/>
<path d="M83 98h1v1h-1v-1z" fill="rgb(255,180,0)"/>
<path d="M89 98h1v1h-1v-1z" fill="rgb(30,40,50)"/>
<path d="M27 99h2v1h1v2h-1v1h-2v-1h-1v-2h1v-1z" fill="rgb(30,40,50)"/>
<path d="M33 99h1v2h-1v-2z" fill="rgb(255,230,210)"/>
<path d="M34 99h1v2h-1v-2z" fill="rgb(255,180,0)"/>
<path d="M39 99h2v1h-2v-1z" fill="rgb(30,40,50)"/>
<path d="M43 99h2v1h1v2h-1v1h-2v-1h-1v-2h1v-1z" fill="rgb(30,40,50)"/>
<path d="M49 99h1v2h-1v-2z" fill="rgb(255,230,210)"/>
<path d="M50 99h1v2h-1v-2z" fill="rgb(255,180,0)"/>
<path d="M55 99h2v1h-2v-1z" fill="rgb(30,40,50)"/>
<path d="M59 99h2v1h1v2h-1v1h-2v-1h-1v-2h1v-1z" fill="rgb(30,40,50)"/>
<path d="M65 99h1v2h-1v-2z" fill="rgb(255,230,210)"/>
<path d="M66 99h1v2h-1v-2z" fill="rgb(255,180,0)"/>
<path d="M71 99h2v1h-2v-1z" fill="rgb(30,40,50)"/>
<path d="M75 99h2v1h1v2h-1v1h-2v-1h-1v-2h1v-1z" fill="rgb(30,40,50)"/>
<path d="M81 99h1v2h-1v-2z" fill="rgb(255,230,210)"/>
<path d="M82 99h1v2h-1v-2z" fill="rgb(255,180,0)"/>
<path d="M87 99h2v1h-2v-1z" fill="rgb(30,40,50)"/>
<path d="M91 99h2v1h1v2h-1v1h-2v-1h-1v-2h1v-1z" fill="rgb(30,40,50)"/>
<path d="M38 100h1v1h-1v-1z" fill="rgb(30,40,50)"/>
<path d="M54 100h1v1h-1v-1z" fill="rgb(30,40,50)"/>
<path d="M70 100h1v1h-1v-1z" fill="rgb(30,40,50)"/>
<path d="M86 100h1v1h-1v-1z" fill="rgb(30,40,50)"/>
<path d="M32 101h1v2h-1v-2z" fill="rgb(255,230,210)"/>
<path d="M33 101h1v2h-1v-2z" fill="rgb(255,180,0)"/>
<path d="M37 101h1v2h-1v-2z" fill="rgb(30,40,50)"/>
<path d="M48 101h1v2h-1v-2z" fill="rgb(255,230,210)"/>
<path d="M49 101h1v2h-1v-2z" fill="rgb(255,180,0)"/>
<path d="M53 101h1v2h-1v-2z" fill="rgb(30,40,50)"/>
<path d="M64 101h1v2h-1v-2z" fill="rgb(255,230,210)"/>
<path d="M65 101h1v2h-1v-2z" fill="rgb(255,180,0)"/>
<path d="M69 101h1v2h-1v-2z" fill="rgb(30,40,50)"/>
<path d="M80 101h1v2h-1v-2z" fill="rgb(255,230,210)"/>
<path d="M81 101h1v2h-1v-2z" fill="rgb(255,180,0)"/>
<path d="M85 101h1v2h-1v-2z" fill="rgb(30,40,50)"/>
<path d="M31 103h1v1h-1v-1z" fill="rgb(255,230,210)"/>
<path d="M32 103h1v1h-1v-1z" fill="rgb(255,180,0)"/>
<path d="M36 103h1v1h-1v-1z" fill="rgb(30,40,50)"/>
<path d="M47 103h1v1h-1v-1z" fill="rgb(255,230,210)"/>
<path d="M48 103h1v1h-1v-1z" fill="rgb(255,180,0)"/>
<path d="M52 103h1v1h-1v-1z" fill="rgb(30,40,50)"/>
<path d="M63 103h1v1h-1v-1z" fill="rgb(255,230,210)"/>
<path d="M64 103h1v1h-1v-1z" fill="rgb(255,180,0)"/>
<path d="M68 103h1v1h-1v-1z" fill="rgb(30,40,50)"/>
<path d="M79 103h1v1h-1v-1z" fill="rgb(255,230,210)"/>
<path d="M80 103h1v1h-1v-1z" fill="rgb(255,180,0)"/>
<path d="M84 103h1v1h-1v-1z" fill="rgb(30,40,50)"/>
<path d="M30 104h1v1h-1v-1z" fill="rgb(255,230,210)"/>
<path d="M35 104h1v1h-1v-1z" fill="rgb(30,40,50)"/>
<path d="M46 104h1v1h-1v-1z" fill="rgb(255,230,210)"/>
<path d="M51 104h1v1h-1v-1z" fill="rgb(30,40,50)"/>
<path d="M62 104h1v1h-1v-1z" fill="rgb(255,230,210)"/>
<path d="M67 104h1v1h-1v-1z" fill="rgb(30,40,50)"/>
<path d="M78 104h1v1h-1v-1z" fill="rgb(255,230,210)"/>
<path d="M83 104h1v1h-1v-1z" fill="rgb(30,40,50)"/>
<path d="M29 105h1v1h-1v-1z" fill="rgb(255,230,210)"/>
<path d="M34 105h1v1h-1v-1z" fill="rgb(30,40,50)"/>
<path d="M45 105h1v1h-1v-1z" fill="rgb(255,230,210)"/>
<path d="M50 105h1v1h-1v-1z" fill="rgb(30,40,50)"/>
<path d="M61 105h1v1h-1v-1z" fill="rgb(255,230,210)"/>
<path d="M66 105h1v1h-1v-1z" fill="rgb(30,40,50)"/>
<path d="M77 105h1v1h-1v-1z" fill="rgb(255,230,210)"/>
<path d="M82 105h1v1h-1v-1z" fill="rgb(30,40,50)"/>
<path d="M29 106h1v1h-1v-1z" fill="rgb(255,180,0)"/>
<path d="M33 106h1v1h-1v-1z" fill="rgb(30,40,50)"/>
<path d="M45 106h1v1h-1v-1z" fill="rgb(255,180,0)"/>
<path d="M49 106h1v1h-1v-1z" fill="rgb(30,40,50)"/>
<path d="M61 106h1v1h-1v-1z" fill="rgb(255,180,0)"/>
<path d="M65 106h1v1h-1v-1z" fill="rgb(30,40,50)"/>
<path d="M77 106h1v1h-1v-1z" fill="rgb(255,180,0)"/>
<path d="M81 106h1v1h-1v-1z" fill="rgb(30,40,50)"/>
<path d="M30 107h2v1h-2v-1z" fill="rgb(255,180,0)"/>
<path d="M32 107h1v1h-1v-1z" fill="rgb(30,40,50)"/>
<path d="M36 107h1v1h1v1h-1v1h-1v-1h-1v-1h1v-1z" fill="rgb(255,230,210)"/>
<path d="M46 107h2v1h-2v-1z" fill="rgb(255,180,0)"/>
<path d="M48 107h1v1h-1v-1z" fill="rgb(30,40,50)"/>
<path d="M52 107h1v1h1v1h-1v1h-1v-1h-1v-1h1v-1z" fill="rgb(255,230,210)"/>
<path d="M62 107h2v1h-2v-1z" fill="rgb(255,180,0)"/>
<path d="M64 107h1v1h-1v-1z" fill="rgb(30,40,50)"/>
<path d="M68 107h1v1h1v1h-1v1h-1v-1h-1v-1h1v-1z" fill="rgb(255,230,210)"/>
<path d="M78 107h2v1h-2v-1z" fill="rgb(255,180,0)"/>
<path d="M80 107h1v1h-1v-1z" fill="rgb(30,40,50)"/>
<path d="M84 107h1v1h1v1h-1v1h-1v-1h-1v-1h1v-1z" fill="rgb(255,230,210)"/>
</svg>